<svg width="18" height="18" viewBox="0 0 18 18" fill="none" xmlns="http://www.w3.org/2000/svg">
<g id="Avatar">
<g clip-path="url(#clip0_2552_16418)">
<rect id="background" width="18" height="18" fill="#1769FF"/>
<path id="behance" d="M6.35785 4.92188C6.74593 4.92188 7.10017 4.95644 7.42057 5.02484C7.74097 5.09324 8.01457 5.20556 8.24281 5.3618C8.47105 5.51804 8.64817 5.7254 8.77417 5.9846C8.90017 6.2438 8.96281 6.56348 8.96281 6.94436C8.96281 7.35548 8.86921 7.6982 8.68273 7.97252C8.49625 8.24684 8.21977 8.47148 7.85473 8.64644C8.35729 8.79116 8.73241 9.0446 8.98009 9.40604C9.22777 9.76748 9.35161 10.2038 9.35161 10.7143C9.35161 11.1254 9.27169 11.4818 9.11185 11.7828C8.95201 12.0837 8.73673 12.3292 8.46601 12.5193C8.19529 12.7101 7.88713 12.8505 7.54081 12.942C7.19233 13.0334 6.83305 13.0795 6.47305 13.0788H2.51953V4.92188H6.35785ZM6.12961 8.22307C6.44929 8.22307 6.71209 8.14676 6.91801 7.99484C7.12393 7.8422 7.22689 7.59524 7.22617 7.25252C7.22617 7.06244 7.19161 6.9062 7.12321 6.78452C7.05481 6.66284 6.96337 6.56708 6.84889 6.49867C6.73441 6.43027 6.60337 6.38276 6.45505 6.35612C6.30241 6.32948 6.14761 6.3158 5.99209 6.31652H4.31377V8.22452L6.12961 8.22307ZM6.23257 11.6841C6.40177 11.6848 6.57025 11.6676 6.73513 11.633C6.89497 11.5984 7.03609 11.5416 7.15777 11.4616C7.27945 11.3817 7.37665 11.273 7.44937 11.1362C7.52137 10.9994 7.55809 10.8237 7.55809 10.6106C7.55809 10.1923 7.44001 9.89275 7.20385 9.71419C6.96769 9.53491 6.65521 9.44564 6.26713 9.44564H4.31377V11.6848L6.23257 11.6841ZM11.6081 11.5128C11.8515 11.7489 12.2021 11.867 12.6593 11.867C12.9869 11.867 13.2684 11.7849 13.5046 11.6215C13.7407 11.458 13.8855 11.2845 13.9387 11.1016H15.3665C15.1383 11.8101 14.7876 12.3163 14.3153 12.6208C13.843 12.9254 13.272 13.078 12.6017 13.078C12.1373 13.078 11.7183 13.0039 11.3453 12.8556C10.9723 12.7072 10.6563 12.4956 10.3971 12.2212C10.1379 11.9469 9.93769 11.62 9.79729 11.2392C9.65689 10.8583 9.58633 10.4392 9.58633 9.98276C9.58633 9.5414 9.65833 9.13027 9.80305 8.74939C9.94777 8.36851 10.1537 8.03948 10.4201 7.76156C10.6865 7.48364 11.0047 7.26476 11.3741 7.10492C11.7435 6.94508 12.1531 6.86516 12.6024 6.86516C13.105 6.86516 13.5427 6.96236 13.9164 7.15676C14.2894 7.35116 14.5961 7.61179 14.8359 7.93939C15.0756 8.26699 15.2491 8.63995 15.3557 9.05899C15.4623 9.47803 15.5004 9.91579 15.4702 10.373H11.2092C11.2315 10.8964 11.3647 11.2773 11.6081 11.5128ZM13.4419 8.40596C13.2475 8.19284 12.9523 8.08627 12.5563 8.08627C12.2971 8.08627 12.0819 8.1302 11.9112 8.21732C11.7399 8.30516 11.6031 8.41316 11.5001 8.54276C11.3971 8.67236 11.3251 8.80915 11.2834 8.95388C11.2416 9.0986 11.2164 9.2282 11.2092 9.34196H13.848C13.771 8.93156 13.6356 8.61908 13.4419 8.40596ZM10.9313 5.33588H14.2282V6.25028H10.9313V5.33588Z" fill="white"/>
</g>
</g>
<defs>
<clipPath id="clip0_2552_16418">
<rect width="18" height="18" rx="9" fill="white"/>
</clipPath>
</defs>
</svg>
