<svg width="44" height="43" viewBox="0 0 44 43" fill="none" xmlns="http://www.w3.org/2000/svg">
<g id="circle-dollar-sign">
<path id="Vector" d="M21.9985 39.2777C31.8169 39.2777 39.7763 31.3183 39.7763 21.4999C39.7763 11.6816 31.8169 3.72217 21.9985 3.72217C12.1801 3.72217 4.2207 11.6816 4.2207 21.4999C4.2207 31.3183 12.1801 39.2777 21.9985 39.2777Z" stroke="#86EFAC" stroke-width="1.77778" stroke-linecap="round" stroke-linejoin="round"/>
<path id="Vector_2" d="M29.1109 14.3887H18.4442C17.5012 14.3887 16.5969 14.7633 15.9301 15.4301C15.2633 16.0969 14.8887 17.0012 14.8887 17.9442C14.8887 18.8872 15.2633 19.7916 15.9301 20.4584C16.5969 21.1252 17.5012 21.4998 18.4442 21.4998H25.5553C26.4983 21.4998 27.4027 21.8744 28.0695 22.5412C28.7363 23.208 29.1109 24.1123 29.1109 25.0553C29.1109 25.9983 28.7363 26.9027 28.0695 27.5695C27.4027 28.2363 26.4983 28.6109 25.5553 28.6109H14.8887" stroke="#86EFAC" stroke-width="1.77778" stroke-linecap="round" stroke-linejoin="round"/>
<path id="Vector_3" d="M22 32.1663V10.833" stroke="#86EFAC" stroke-width="1.77778" stroke-linecap="round" stroke-linejoin="round"/>
</g>
</svg>
