<svg xmlns="http://www.w3.org/2000/svg" width="14.815" height="16.308" viewBox="0 0 14.815 16.308">
  <g id="Group_574" data-name="Group 574" transform="translate(-18.836 -19.182)">
    <g id="Row_16" transform="translate(19.341 19.682)">
      <g id="Row_17" transform="translate(0 0)">
        <g id="settings">
          <path id="Vector_35" d="M43.81,388.167h-.337a1.529,1.529,0,0,0-1.531,1.53v.138a1.533,1.533,0,0,1-.765,1.325l-.329.19a1.525,1.525,0,0,1-1.531,0l-.115-.06a1.529,1.529,0,0,0-2.09.559l-.168.29a1.531,1.531,0,0,0,.559,2.09l.115.076a1.531,1.531,0,0,1,.765,1.316v.391a1.531,1.531,0,0,1-.765,1.332l-.115.068a1.532,1.532,0,0,0-.559,2.09l.168.291a1.53,1.53,0,0,0,2.09.558l.115-.06a1.525,1.525,0,0,1,1.531,0l.329.192a1.529,1.529,0,0,1,.765,1.324v.138a1.529,1.529,0,0,0,1.531,1.53h.337a1.529,1.529,0,0,0,1.531-1.53v-.138a1.529,1.529,0,0,1,.765-1.324l.329-.192a1.525,1.525,0,0,1,1.531,0l.115.06a1.53,1.53,0,0,0,2.09-.558l.168-.3a1.53,1.53,0,0,0-.559-2.089l-.115-.062a1.531,1.531,0,0,1-.765-1.332v-.383a1.531,1.531,0,0,1,.765-1.332l.115-.068a1.531,1.531,0,0,0,.559-2.09l-.168-.29a1.529,1.529,0,0,0-2.09-.559l-.115.06a1.525,1.525,0,0,1-1.531,0l-.329-.19a1.533,1.533,0,0,1-.765-1.325V389.7a1.529,1.529,0,0,0-1.531-1.53Z" transform="translate(-36.74 -388.167)" fill="none" stroke="#22e591" stroke-linecap="round" stroke-linejoin="round" stroke-width="1"/>
          <path id="Vector_36" d="M42.546,396.843a2.3,2.3,0,1,0-2.3-2.3A2.3,2.3,0,0,0,42.546,396.843Z" transform="translate(-35.644 -386.892)" fill="none" stroke="#22e591" stroke-linecap="round" stroke-linejoin="round" stroke-width="1"/>
        </g>
      </g>
    </g>
  </g>
</svg>
