<svg width="43" height="43" viewBox="0 0 43 43" fill="none" xmlns="http://www.w3.org/2000/svg">
<g id="coins">
<path id="Vector" d="M14.5534 25.0555C20.4444 25.0555 25.2201 20.2799 25.2201 14.3888C25.2201 8.4978 20.4444 3.72217 14.5534 3.72217C8.66235 3.72217 3.88672 8.4978 3.88672 14.3888C3.88672 20.2799 8.66235 25.0555 14.5534 25.0555Z" stroke="#86EFAC" stroke-width="1.77778" stroke-linecap="round" stroke-linejoin="round"/>
<path id="Vector_2" d="M32.4926 18.6021C34.1732 19.2286 35.6686 20.2688 36.8406 21.6264C38.0126 22.984 38.8234 24.6153 39.1979 26.3693C39.5725 28.1233 39.4987 29.9434 38.9834 31.6613C38.4681 33.3793 37.5279 34.9395 36.2498 36.1978C34.9717 37.4561 33.397 38.3718 31.6713 38.8602C29.9455 39.3487 28.1244 39.3941 26.3765 38.9922C24.6286 38.5903 23.0102 37.7542 21.671 36.5612C20.3318 35.3681 19.3151 33.8566 18.7148 32.1665" stroke="#86EFAC" stroke-width="1.77778" stroke-linecap="round" stroke-linejoin="round"/>
<path id="Vector_3" d="M12.7773 10.833H14.5551V17.9441" stroke="#86EFAC" stroke-width="1.77778" stroke-linecap="round" stroke-linejoin="round"/>
<path id="Vector_4" d="M30.0384 24.8418L31.2829 26.104L26.2695 31.1174" stroke="#86EFAC" stroke-width="1.77778" stroke-linecap="round" stroke-linejoin="round"/>
</g>
</svg>
