<svg xmlns="http://www.w3.org/2000/svg" width="25.962" height="54.731" viewBox="0 0 25.962 54.731">
  <g id="Group_587" data-name="Group 587" transform="translate(-89 -66)">
    <path id="Vector" d="M20,29.648h3.541a3.692,3.692,0,0,1,3.691,3.692V49.281H20Z" transform="translate(69 43.007)" fill="#faa61a"/>
    <path id="Vector_2" d="M30.25,29.648h3.541a3.692,3.692,0,0,1,3.691,3.692V49.281H30.25Z" transform="translate(77.45 43.007)" fill="#faa61a"/>
    <path id="Vector_3" d="M25.141,26h3.541a3.692,3.692,0,0,1,3.691,3.691v22.6H25.141Z" transform="translate(73.238 40)" fill="#faa61a"/>
    <path id="Vector_4" d="M37.5,61.224H33.957a3.692,3.692,0,0,1-3.691-3.692V41.59H37.5Z" transform="translate(77.463 52.852)" fill="#00a9bb"/>
    <path id="Vector_5" d="M27.247,61.224H23.709a3.692,3.692,0,0,1-3.691-3.692V41.59h7.23Z" transform="translate(69.014 52.852)" fill="#00a9bb"/>
    <path id="Vector_6" d="M32.356,67.879H28.815a3.692,3.692,0,0,1-3.691-3.691V41.59h7.233Z" transform="translate(73.224 52.852)" fill="#00a9bb"/>
  </g>
</svg>
