<svg width="63" height="62" viewBox="0 0 63 62" fill="none" xmlns="http://www.w3.org/2000/svg">
<path d="M4 31C4 15.8122 16.3122 3.5 31.5 3.5C46.6878 3.5 59 15.8122 59 31C59 46.1878 46.6878 58.5 31.5 58.5C16.3122 58.5 4 46.1878 4 31Z" fill="#FEF9C3"/>
<path d="M4 31C4 15.8122 16.3122 3.5 31.5 3.5C46.6878 3.5 59 15.8122 59 31C59 46.1878 46.6878 58.5 31.5 58.5C16.3122 58.5 4 46.1878 4 31Z" stroke="#FEFCE8" stroke-width="7"/>
<path d="M42.0409 37.5004L33.3742 22.3337C33.1852 22.0003 32.9112 21.7229 32.58 21.53C32.2489 21.337 31.8725 21.2354 31.4892 21.2354C31.1059 21.2354 30.7295 21.337 30.3984 21.53C30.0672 21.7229 29.7932 22.0003 29.6042 22.3337L20.9375 37.5004C20.7465 37.8312 20.6464 38.2066 20.6472 38.5886C20.6481 38.9706 20.7499 39.3456 20.9424 39.6755C21.1348 40.0055 21.4111 40.2787 21.7432 40.4675C22.0753 40.6562 22.4514 40.7538 22.8334 40.7504H40.1667C40.5469 40.75 40.9202 40.6496 41.2493 40.4593C41.5783 40.269 41.8515 39.9954 42.0414 39.6661C42.2313 39.3368 42.3313 38.9633 42.3312 38.5832C42.3311 38.203 42.231 37.8296 42.0409 37.5004Z" stroke="#854D0E" stroke-linecap="round" stroke-linejoin="round"/>
<path d="M31.5 27.75V32.0833" stroke="#854D0E" stroke-linecap="round" stroke-linejoin="round"/>
<path d="M31.5 36.417H31.5108" stroke="#854D0E" stroke-linecap="round" stroke-linejoin="round"/>
</svg>
