<svg xmlns="http://www.w3.org/2000/svg" width="17.573" height="17.607" viewBox="0 0 17.573 17.607">
  <g id="phone" transform="translate(-282.26 -493.167)">
    <path id="Vector_69" d="M299.333,506.1v2.5a1.663,1.663,0,0,1-.54,1.235,1.662,1.662,0,0,1-1.276.432,16.488,16.488,0,0,1-7.192-2.559,16.24,16.24,0,0,1-5-5,16.488,16.488,0,0,1-2.558-7.225,1.666,1.666,0,0,1,1.658-1.816h2.5a1.668,1.668,0,0,1,1.667,1.433,10.679,10.679,0,0,0,.583,2.342,1.666,1.666,0,0,1-.375,1.758l-1.058,1.058a13.319,13.319,0,0,0,5,5L293.8,504.2a1.666,1.666,0,0,1,1.758-.375,10.679,10.679,0,0,0,2.342.583,1.666,1.666,0,0,1,1.433,1.692Z" fill="none" stroke="#8d9bb1" stroke-linecap="round" stroke-linejoin="round" stroke-width="1"/>
  </g>
</svg>
