<svg xmlns="http://www.w3.org/2000/svg" width="14" height="14" viewBox="0 0 14 14">
    <defs>
        <clipPath id="cigpb6l14a">
            <path data-name="Rectangle 6" style="fill:#fff" d="M0 0h14v14H0z"/>
        </clipPath>
    </defs>
    <g style="clip-path:url(#cigpb6l14a)">
        <path d="M298.333 743.833h9.334a1.164 1.164 0 0 0 1.166-1.166v-9.334a1.164 1.164 0 0 0-1.166-1.166h-7a1.166 1.166 0 0 0-1.167 1.166v9.334a1.166 1.166 0 0 1-1.167 1.166zm0 0a1.164 1.164 0 0 1-1.166-1.166v-5.25a1.17 1.17 0 0 1 1.166-1.167h1.167M306.5 739.167h-4.667M304.75 741.5h-2.917" transform="translate(-296 -731)" style="fill:none;stroke:#8d9bb1;stroke-linecap:round;stroke-linejoin:round"/>
        <path d="M301.833 734.5h4.667v2.333h-4.667z" transform="translate(-296 -731)" style="fill:none;stroke:#8d9bb1;stroke-linecap:round;stroke-linejoin:round"/>
    </g>
</svg>
