<svg xmlns="http://www.w3.org/2000/svg" width="35" height="35" viewBox="0 0 35 35">
  <g id="Group_627" data-name="Group 627" transform="translate(-315 -64)">
    <g id="Group_605" data-name="Group 605" transform="translate(295 -96)">
      <g id="Group_563" data-name="Group 563" transform="translate(26 166)">
        <g id="Group_486" data-name="Group 486">
          <circle id="light" cx="10.5" cy="10.5" r="10.5" transform="translate(0)" fill="#4f5d67"/>
          <circle id="dark" cx="10.5" cy="10.5" r="10.5" transform="translate(2 2)" fill="#0c1116" opacity="0.5"/>
          <circle id="Ellipse_7" data-name="Ellipse 7" cx="10" cy="10" r="10" transform="translate(1 1)" fill="#22e591"/>
        </g>
      </g>
    </g>
    <g id="Group_583" data-name="Group 583" transform="translate(111.303 114.758) rotate(-45)">
      <g id="Group_583-2" data-name="Group 583" transform="translate(359.5 255.018) rotate(180)">
        <g id="Row_9" transform="translate(372.5 312) rotate(180)">
          <g id="chevron-down" transform="translate(190 182)">
            <path id="Vector_29" d="M196.5,184.75,193.75,182,191,184.75" transform="translate(-191 -182)" fill="none" stroke="#243441" stroke-linecap="round" stroke-linejoin="round" stroke-width="1"/>
          </g>
        </g>
        <path id="Path_98" data-name="Path 98" d="M179.75,127.424v-4.079" transform="translate(0 1.673)" fill="none" stroke="#243441" stroke-linecap="round" stroke-width="1"/>
      </g>
      <g id="Group_584" data-name="Group 584" transform="translate(0 9)">
        <g id="Row_9-2" data-name="Row_9" transform="translate(372.5 312) rotate(180)">
          <g id="chevron-down-2" data-name="chevron-down" transform="translate(190 182)">
            <path id="Vector_29-2" data-name="Vector_29" d="M196.5,184.75,193.75,182,191,184.75" transform="translate(-191 -182)" fill="none" stroke="#243441" stroke-linecap="round" stroke-linejoin="round" stroke-width="1"/>
          </g>
        </g>
        <path id="Path_98-2" data-name="Path 98" d="M179.75,127.424v-4.079" transform="translate(0 1.673)" fill="none" stroke="#243441" stroke-linecap="round" stroke-width="1"/>
      </g>
      <g id="Group_585" data-name="Group 585" transform="translate(56.741 311.759) rotate(-90)">
        <g id="Row_9-3" data-name="Row_9" transform="translate(372.5 312) rotate(180)">
          <g id="chevron-down-3" data-name="chevron-down" transform="translate(190 182)">
            <path id="Vector_29-3" data-name="Vector_29" d="M196.5,184.75,193.75,182,191,184.75" transform="translate(-191 -182)" fill="none" stroke="#243441" stroke-linecap="round" stroke-linejoin="round" stroke-width="1"/>
          </g>
        </g>
        <path id="Path_98-3" data-name="Path 98" d="M179.75,127.424v-4.079" transform="translate(0 1.673)" fill="none" stroke="#243441" stroke-linecap="round" stroke-width="1"/>
      </g>
      <g id="Group_586" data-name="Group 586" transform="translate(302.759 -47.741) rotate(90)">
        <g id="Row_9-4" data-name="Row_9" transform="translate(372.5 312) rotate(180)">
          <g id="chevron-down-4" data-name="chevron-down" transform="translate(190 182)">
            <path id="Vector_29-4" data-name="Vector_29" d="M196.5,184.75,193.75,182,191,184.75" transform="translate(-191 -182)" fill="none" stroke="#243441" stroke-linecap="round" stroke-linejoin="round" stroke-width="1"/>
          </g>
        </g>
        <path id="Path_98-4" data-name="Path 98" d="M179.75,127.424v-4.079" transform="translate(0 1.673)" fill="none" stroke="#243441" stroke-linecap="round" stroke-width="1"/>
      </g>
    </g>
  </g>
</svg>
