<svg width="17" height="16" viewBox="0 0 17 16" fill="none" xmlns="http://www.w3.org/2000/svg">
<g id="eye-off">
<path id="Vector" d="M7.08577 6.58594C6.88928 6.76904 6.73167 6.98984 6.62236 7.23517C6.51305 7.4805 6.45427 7.74534 6.44953 8.01388C6.44479 8.28242 6.49419 8.54916 6.59478 8.7982C6.69537 9.04723 6.84509 9.27346 7.03501 9.46337C7.22492 9.65329 7.45115 9.80301 7.70018 9.9036C7.94922 10.0042 8.21596 10.0536 8.4845 10.0488C8.75304 10.0441 9.01788 9.98533 9.26321 9.87602C9.50854 9.76671 9.72934 9.6091 9.91244 9.4126" stroke="#6B7280" stroke-linecap="round" stroke-linejoin="round"/>
<path id="Vector_2" d="M7.6543 3.38732C7.93517 3.35232 8.21792 3.33451 8.50096 3.33398C13.1676 3.33398 15.1676 8.00065 15.1676 8.00065C14.8696 8.63873 14.4958 9.23861 14.0543 9.78732" stroke="#6B7280" stroke-linecap="round" stroke-linejoin="round"/>
<path id="Vector_3" d="M4.90732 4.40625C3.58148 5.30933 2.52057 6.54976 1.83398 7.99958C1.83398 7.99958 3.83398 12.6662 8.50065 12.6662C9.77793 12.6697 11.0278 12.2963 12.094 11.5929" stroke="#6B7280" stroke-linecap="round" stroke-linejoin="round"/>
<path id="Vector_4" d="M1.83398 1.33398L15.1673 14.6673" stroke="black" stroke-linecap="round" stroke-linejoin="round"/>
</g>
</svg>
