<svg width="25" height="25" viewBox="0 0 25 25" fill="none" xmlns="http://www.w3.org/2000/svg">
<g id="facebook" clip-path="url(#clip0_1883_11300)">
<path id="Vector" d="M12.5 24.8984C19.1274 24.8984 24.5 19.5259 24.5 12.8984C24.5 6.27102 19.1274 0.898438 12.5 0.898438C5.87258 0.898438 0.5 6.27102 0.5 12.8984C0.5 19.5259 5.87258 24.8984 12.5 24.8984Z" fill="white"/>
<path id="Vector_2" d="M17.1717 16.3673L17.7033 12.8977H14.3755V10.6466C14.3755 9.69817 14.8396 8.77172 16.3313 8.77172H17.845V5.81855C17.845 5.81855 16.4714 5.58398 15.1585 5.58398C12.418 5.58398 10.6258 7.24451 10.6258 10.2534V12.8977H7.57812V16.3673H10.6258V24.7526C11.2367 24.8488 11.8628 24.8977 12.5006 24.8977C13.1385 24.8977 13.7646 24.8471 14.3755 24.7526V16.3673H17.1717Z" fill="#024457"/>
</g>
<defs>
<clipPath id="clip0_1883_11300">
<rect width="24" height="24" fill="white" transform="translate(0.5 0.896484)"/>
</clipPath>
</defs>
</svg>
