<svg width="18" height="18" viewBox="0 0 18 18" fill="none" xmlns="http://www.w3.org/2000/svg">
<g id="Avatar">
<g clip-path="url(#clip0_2552_24874)">
<path id="Vector" d="M9 18.0013C13.9706 18.0013 18 13.9718 18 9.00128C18 4.03072 13.9706 0.00128174 9 0.00128174C4.02944 0.00128174 0 4.03072 0 9.00128C0 13.9718 4.02944 18.0013 9 18.0013Z" fill="#1977F3"/>
<path id="Vector_2" d="M12.5038 11.6035L12.9025 9.0013H10.4066V7.31293C10.4066 6.60163 10.7547 5.90679 11.8735 5.90679H13.0088V3.69192C13.0088 3.69192 11.9785 3.51599 10.9939 3.51599C8.93846 3.51599 7.59435 4.76139 7.59435 7.01803V9.0013H5.30859V11.6035H7.59435V17.8924C8.05251 17.9646 8.52207 18.0013 9.00048 18.0013C9.47889 18.0013 9.94845 17.9633 10.4066 17.8924V11.6035H12.5038Z" fill="white"/>
</g>
</g>
<defs>
<clipPath id="clip0_2552_24874">
<rect width="18" height="18" rx="9" fill="white"/>
</clipPath>
</defs>
</svg>
