<svg width="91" height="90" viewBox="0 0 91 90" fill="none" xmlns="http://www.w3.org/2000/svg">
<g id="Image 5">
<g id="Group">
<g id="Group_2">
<g id="Group_3">
<g id="Group_4">
<g id="Layer_1">
<path id="Vector" d="M41.446 60.7515C41.702 60.3995 41.83 60.2075 41.958 60.0475C45.894 56.1115 49.83 52.1435 53.798 48.2075C55.366 46.6395 57.254 46.3515 59.014 47.4075C61.062 48.5915 61.574 51.4715 60.102 53.3275C59.942 53.5515 59.75 53.7435 59.558 53.9355C54.566 58.9595 49.542 63.9515 44.518 68.9755C43.27 70.2235 41.766 70.7035 40.07 70.0955C39.494 69.8715 38.918 69.5195 38.47 69.0715C36.038 66.7035 33.638 64.3035 31.27 61.9035C29.19 59.7915 29.67 56.5595 32.262 55.2795C33.734 54.5435 35.27 54.6715 36.518 55.7595C38.022 57.0715 39.398 58.5755 40.838 59.9835C41.062 60.1435 41.19 60.3995 41.446 60.7515ZM41.542 68.0155C41.99 67.6955 42.502 67.4715 42.854 67.0875C47.814 62.1595 52.774 57.1995 57.734 52.2395C57.862 52.1115 58.022 51.9835 58.118 51.8235C58.822 50.9275 58.406 49.6795 57.318 49.3595C56.582 49.1355 56.07 49.4875 55.558 49.9675C51.27 54.2555 46.982 58.5435 42.694 62.8315C41.766 63.7595 41.19 63.7915 40.262 62.8635C38.598 61.1995 36.934 59.5035 35.238 57.8715C34.534 57.1675 33.574 57.1995 32.966 57.8395C32.358 58.4795 32.358 59.4075 33.03 60.0795C35.462 62.5115 37.894 64.9755 40.358 67.3755C40.614 67.6315 41.062 67.7595 41.542 68.0155Z" fill="#025B74"/>
</g>
<g id="Layer_1_2">
<path id="Vector_2" d="M6.11914 68.3391C6.11914 48.8191 6.11914 29.2991 6.11914 9.77914C7.36714 6.45114 8.58314 5.61914 12.1351 5.61914C34.5031 5.61914 56.9031 5.61914 79.2711 5.61914C82.8231 5.61914 84.8071 7.57114 84.8071 11.1231C84.8071 29.7151 84.7751 48.3071 84.8391 66.8991C84.8391 69.8111 82.9191 72.5311 79.2711 72.4351C75.6551 72.3391 72.0391 72.4351 68.4551 72.4031C67.8151 72.4031 67.4631 72.5951 67.0791 73.1071C63.3671 78.2911 58.4711 81.8111 52.2951 83.4111C50.6631 83.8271 48.9991 84.0191 47.3351 84.3391C46.1191 84.3391 44.8711 84.3391 43.6551 84.3391C43.4631 84.3071 43.2711 84.2431 43.0471 84.2111C34.9831 83.3791 28.5831 79.6031 23.8471 73.0431C23.4951 72.5631 23.1751 72.3711 22.5991 72.3711C18.8551 72.4031 15.1111 72.4031 11.3991 72.3711C8.71114 72.3711 7.04714 71.0591 6.27914 68.4991C6.21514 68.4671 6.18314 68.4031 6.11914 68.3391ZM21.5111 69.3311C21.4471 69.1071 21.4151 68.9471 21.3511 68.8191C19.3671 64.4031 18.6311 59.7631 19.1751 54.9631C19.5591 51.5071 20.5511 48.2751 22.2471 45.2031C22.7271 44.3391 23.5911 44.0511 24.3911 44.4671C25.1591 44.8831 25.3831 45.7151 24.9991 46.5791C24.9671 46.6751 24.9031 46.7711 24.8711 46.8671C22.2791 51.7951 21.5751 56.9791 22.5991 62.4191C24.9991 75.1231 37.8631 83.5711 50.5031 80.6911C62.7271 77.9071 70.4391 66.6111 68.5831 54.1631C66.9511 43.2191 57.3511 34.7711 46.2791 34.4831C42.0871 34.3871 38.1511 35.2511 34.4391 37.2031C34.0231 37.4271 33.5111 37.5231 33.0631 37.4591C32.3911 37.3631 32.0071 36.8511 31.9431 36.1791C31.8471 35.3791 32.2631 34.8991 32.9351 34.5471C38.3431 31.6991 44.0391 30.7391 50.0551 31.7951C67.0151 34.8031 76.5831 52.7231 69.7031 68.5311C69.6071 68.7551 69.5431 68.9791 69.4151 69.2671C69.7671 69.2991 69.9911 69.2991 70.2151 69.2991C73.2871 69.2991 76.3591 69.2991 79.4311 69.2991C81.1591 69.2991 81.7671 68.6591 81.7671 66.9311C81.7671 53.2031 81.7671 39.4751 81.7671 25.7471C81.7671 25.4911 81.7671 25.2031 81.7671 24.9471C57.5431 24.9471 33.3831 24.9471 9.22314 24.9471C9.22314 25.2671 9.22314 25.5231 9.22314 25.7791C9.22314 39.5071 9.22314 53.2351 9.22314 66.9631C9.22314 68.6911 9.86314 69.3311 11.5911 69.3311C14.5991 69.3311 17.5751 69.3311 20.5831 69.3311C20.8391 69.3311 21.1591 69.3311 21.5111 69.3311ZM81.7351 21.7791C81.7351 18.0991 81.7351 14.5151 81.7351 10.9311C81.7351 9.39514 81.0311 8.69114 79.4631 8.69114C56.8071 8.69114 34.1191 8.69114 11.4631 8.69114C9.86314 8.69114 9.19114 9.36314 9.19114 10.9951C9.19114 14.3231 9.19114 17.6511 9.19114 20.9791C9.19114 21.2351 9.19114 21.4591 9.19114 21.7471C33.4151 21.7791 57.5431 21.7791 81.7351 21.7791Z" fill="#025B74"/>
</g>
<g id="Layer_1_3">
<path id="Vector_3" d="M29.5283 40.3464C29.5283 41.2104 28.8563 41.8504 27.9923 41.8184C27.1603 41.8184 26.4883 41.1144 26.4883 40.3144C26.4883 39.4824 27.2563 38.7463 28.0883 38.7783C28.8883 38.8103 29.5283 39.4824 29.5283 40.3464Z" fill="#025B74"/>
</g>
<g id="Layer_1_4">
<path id="Vector_4" d="M28.6289 13.9863C32.2769 13.9863 35.8929 13.9863 39.5409 13.9863C39.7969 13.9863 40.0529 13.9863 40.3089 14.0183C41.0449 14.0823 41.5889 14.6263 41.6529 15.3623C41.7489 16.1303 41.3009 16.8023 40.5649 16.9943C40.2769 17.0583 39.9569 17.0903 39.6689 17.0903C32.3089 17.0903 24.9809 17.0903 17.6209 17.0903C17.3009 17.0903 17.0129 17.0903 16.6929 16.9943C15.9569 16.8023 15.4769 16.1303 15.5409 15.3943C15.6049 14.6583 16.1809 14.0823 16.9489 14.0183C17.5249 13.9863 18.0689 13.9863 18.6449 13.9863C21.9729 13.9863 25.3009 13.9863 28.6289 13.9863Z" fill="#025B74"/>
</g>
<g id="Layer_1_5">
<path id="Vector_5" d="M55.8194 15.4915C55.8194 14.6595 56.4914 14.0195 57.3234 14.0195C58.1874 14.0195 58.8914 14.7235 58.8594 15.5555C58.8274 16.3555 58.1234 17.0595 57.3234 17.0595C56.4914 17.0595 55.7874 16.3555 55.8194 15.4915Z" fill="#025B74"/>
</g>
<g id="Layer_1_6">
<path id="Vector_6" d="M72.2637 15.4923C72.2637 14.6283 72.9037 13.9883 73.7677 13.9883C74.5997 13.9883 75.3037 14.6283 75.3357 15.4603C75.3677 16.2923 74.6317 17.0283 73.7677 17.0283C72.9357 17.0283 72.2637 16.3563 72.2637 15.4923Z" fill="#025B74"/>
</g>
<g id="Layer_1_7">
<path id="Vector_7" d="M64.043 15.5254C64.043 14.6614 64.651 14.0214 65.515 13.9894C66.379 13.9574 67.115 14.6294 67.115 15.4934C67.115 16.3254 66.379 17.0614 65.547 17.0294C64.715 17.0294 64.043 16.3574 64.043 15.5254Z" fill="#025B74"/>
</g>
</g>
</g>
</g>
</g>
</g>
</svg>
