<svg width="91" height="90" viewBox="0 0 91 90" fill="none" xmlns="http://www.w3.org/2000/svg">
<g id="Image 4">
<g id="Group">
<g id="Group_2">
<g id="Group_3">
<g id="Group_4">
<g id="Layer_1">
<path id="Vector" d="M84.0463 76.9191C83.6623 77.4311 83.3103 77.9751 82.8623 78.4231C81.4543 79.8631 80.0463 81.2711 78.6063 82.6791C77.4543 83.8311 76.3663 83.8311 75.2143 82.6791C70.3823 77.8471 65.5183 72.9831 60.6863 68.1511C59.5343 66.9991 59.4703 66.1671 60.3663 64.9191C59.0223 63.6071 57.7103 62.2631 56.3343 60.8871C52.4623 63.9591 47.9183 66.0071 42.8303 66.9671C42.8303 69.2071 42.8303 71.4151 42.8303 73.6231C42.8303 73.9111 42.8303 74.1671 42.8303 74.4551C42.7983 75.1591 42.3503 75.6071 41.7103 75.6071C41.0703 75.6071 40.6223 75.1591 40.5903 74.4551C40.5583 73.7831 40.5903 73.1111 40.5903 72.4071C40.5903 70.7431 40.5903 69.0471 40.5903 67.2871C39.8863 67.3191 39.2143 67.3831 38.4463 67.4471C38.4463 67.7351 38.4463 67.9911 38.4463 68.2471C38.4463 71.8951 38.4463 75.5751 38.4463 79.2231C38.4463 79.5111 38.4463 79.8311 38.3503 80.1191C38.1903 80.6631 37.7743 80.9511 37.2303 80.9191C36.6543 80.8871 36.2703 80.5351 36.2063 79.9271C36.1743 79.6711 36.2063 79.4151 36.2063 79.1591C36.2063 75.5431 36.2063 71.9271 36.2063 68.3111C36.2063 68.0231 36.2063 67.7671 36.2063 67.4151C35.4703 67.3511 34.7983 67.2871 33.9983 67.2231C33.9983 67.7351 33.9983 68.1511 33.9983 68.5671C33.9983 70.4871 33.9983 72.3751 33.9983 74.2951C33.9983 75.1271 33.5823 75.6071 32.8783 75.6071C32.2063 75.6071 31.7583 75.1271 31.7583 74.2951C31.7583 72.1191 31.7583 69.9431 31.7583 67.7351C31.7583 67.4471 31.7583 67.1911 31.7583 67.1271C29.2623 66.2311 26.7983 65.5591 24.5583 64.4711C14.7343 59.6391 8.84631 51.7671 7.34231 40.9191C5.16631 25.5591 14.8303 11.3511 29.8063 7.44708C31.4383 7.03108 33.1663 6.87108 34.8303 6.58308C35.0223 6.55108 35.2143 6.48708 35.4063 6.45508C36.7503 6.45508 38.1263 6.45508 39.4703 6.45508C40.9743 6.71108 42.5103 6.87108 43.9823 7.19108C49.1663 8.27908 53.7103 10.6471 57.7103 14.1671C58.3823 14.7431 58.4783 15.4151 58.0623 15.9271C57.5823 16.4711 56.9103 16.4711 56.2063 15.8311C52.3983 12.4711 48.0463 10.1671 43.0543 9.30308C31.4383 7.25508 21.9343 10.9671 14.7343 20.2791C10.6383 25.5271 8.97431 31.6391 9.23031 38.2631C9.71031 50.2631 18.1583 60.8871 29.7743 64.1191C45.7103 68.5671 61.9663 58.5831 65.1343 42.2951C66.7023 34.1671 64.9423 26.7111 60.0143 20.0231C59.8543 19.7991 59.6623 19.5751 59.5343 19.3511C59.2143 18.8071 59.2783 18.2951 59.7583 17.8791C60.2383 17.4631 60.8463 17.5271 61.2943 18.0071C61.5503 18.2951 61.8063 18.6471 62.0303 18.9671C64.8143 22.8071 66.6703 27.0311 67.4383 31.7031C67.5343 32.2151 67.7583 32.2791 68.1743 32.2791C70.3823 32.2791 72.5903 32.2791 74.7983 32.2791C75.1503 32.2791 75.5663 32.3111 75.7903 32.5031C76.0463 32.7591 76.3023 33.3031 76.2063 33.5911C76.0783 33.9431 75.6303 34.3911 75.2463 34.4551C74.5423 34.6151 73.8063 34.5191 73.0703 34.5191C71.3423 34.5191 69.6143 34.5191 67.8863 34.5191C67.8863 35.2551 67.8863 35.9271 67.8863 36.6951C68.2063 36.6951 68.4623 36.6951 68.7503 36.6951C72.4943 36.6951 76.2383 36.6951 79.9503 36.6951C80.2063 36.6951 80.4623 36.6631 80.6863 36.7271C81.2623 36.8551 81.6143 37.2071 81.6143 37.8151C81.6143 38.4231 81.2623 38.8071 80.6863 38.9351C80.4623 38.9991 80.2383 38.9671 80.0143 38.9671C76.2383 38.9671 72.4943 38.9671 68.7183 38.9671C68.4303 38.9671 68.1743 38.9671 67.8223 38.9671C67.7583 39.6711 67.6623 40.3111 67.5663 41.0791C67.8543 41.1111 68.1103 41.1111 68.3663 41.1431C70.4143 41.1431 72.4303 41.1431 74.4783 41.1431C74.7023 41.1431 74.9263 41.1431 75.1503 41.1751C75.8223 41.2711 76.2383 41.7191 76.2703 42.2951C76.2703 42.9031 75.7903 43.3831 75.0863 43.4151C73.7103 43.4471 72.3343 43.4151 70.9583 43.4151C69.7423 43.4151 68.4943 43.4151 67.2143 43.4151C66.1583 48.0551 64.2063 52.2151 61.2943 55.8951C62.6383 57.2391 63.9823 58.5831 65.2943 59.9271C66.7663 58.9991 67.4383 59.0631 68.7183 60.3431C71.9823 63.6071 75.2463 66.8711 78.5103 70.1351C78.6383 70.2631 78.7663 70.3911 78.8623 70.5191C79.2783 71.0311 79.2783 71.6391 78.8943 72.0871C78.4463 72.5671 77.8063 72.5991 77.2943 72.0871C76.5583 71.3831 75.8223 70.6471 75.1183 69.9111C74.6063 69.3991 74.1263 68.8551 73.6783 68.4071C72.0463 70.0391 70.4463 71.6071 68.9423 73.1111C71.5663 75.7351 74.2543 78.3911 76.9423 81.0791C78.4143 79.5751 80.0143 78.0071 81.6783 76.3111C81.3903 76.0871 81.0383 75.8311 80.7503 75.5111C80.2703 74.9991 80.3023 74.3271 80.7823 73.9111C81.2303 73.4951 81.8703 73.4951 82.3503 73.9431C82.9583 74.5511 83.4703 75.2551 84.0463 75.9271C84.0463 76.2151 84.0463 76.5671 84.0463 76.9191ZM68.5263 63.5431C67.9823 62.9351 67.4383 62.2951 67.0223 61.8151C65.4223 63.4151 63.8543 64.9831 62.3503 66.4871C62.8303 66.9991 63.4063 67.6071 63.9183 68.1511C65.4863 66.5831 67.0543 65.0151 68.5263 63.5431ZM71.6943 66.7751C71.2463 66.2311 70.7983 65.6551 70.4143 65.2071C68.8143 66.8071 67.2463 68.3431 65.7103 69.8791C66.1583 70.3271 66.6703 70.8391 67.1503 71.2871C68.6863 69.7511 70.2543 68.2151 71.6943 66.7751ZM59.7583 57.8471C59.2783 58.2951 58.7663 58.7751 58.3503 59.1911C59.6303 60.5031 60.9103 61.7831 62.1903 63.0311C62.6383 62.6151 63.1503 62.1351 63.5983 61.6871C62.2863 60.3751 61.0063 59.0951 59.7583 57.8471Z" fill="#FAA61A"/>
</g>
<g id="Layer_1_2">
<path id="Vector_2" d="M43.5311 31.5564C43.8831 31.5564 44.1391 31.5564 44.4271 31.5564C46.3791 31.5564 48.3311 31.5564 50.2831 31.5564C52.0111 31.5564 52.5551 32.1004 52.5551 33.8604C52.5551 35.4924 52.5551 45.6684 52.5551 47.2684C52.5551 47.5244 52.5551 47.8124 52.5551 48.1964C53.0991 48.1964 53.5791 48.1964 54.0271 48.1964C54.6991 48.2284 55.1151 48.5804 55.1791 49.2524C55.2431 49.8924 54.7951 50.3404 54.0911 50.4364C53.8031 50.4684 53.5471 50.4684 53.2591 50.4684C42.9871 50.4684 32.7471 50.4684 22.4751 50.4684C22.1231 50.4684 21.7711 50.4684 21.4191 50.4044C20.8111 50.2764 20.5231 49.8604 20.5551 49.2524C20.5871 48.6764 20.9071 48.3244 21.4831 48.2284C21.6431 48.1964 21.7711 48.1964 21.9311 48.1964C23.1791 48.1644 23.1791 48.1644 23.1791 46.9484C23.1791 43.4924 23.1791 31.4924 23.1791 28.0364C23.1791 26.3724 23.7551 25.7964 25.3871 25.7964C27.3711 25.7964 29.3551 25.7964 31.3391 25.7964C31.5951 25.7964 31.8831 25.7964 32.2351 25.7964C32.2351 24.5484 32.2351 23.3964 32.2351 22.2444C32.2351 20.6444 32.8431 20.0684 34.4111 20.0684C36.7471 20.0684 39.0831 20.0684 41.4191 20.0684C42.9231 20.0684 43.5311 20.6764 43.5311 22.1804C43.5311 24.9644 43.5311 27.7484 43.5311 30.5324C43.5311 30.8524 43.5311 31.1404 43.5311 31.5564ZM41.2591 22.4364C38.9551 22.4364 36.7471 22.4364 34.5391 22.4364C34.5071 22.5644 34.5071 22.5964 34.5071 22.6604C34.5071 28.1644 34.5071 42.1804 34.4751 47.6524C34.4751 48.1644 34.7311 48.2284 35.1151 48.2284C36.8751 48.2284 38.6351 48.1964 40.3631 48.2284C41.0351 48.2604 41.2591 48.0364 41.2591 47.3644C41.2271 42.1804 41.2591 28.4524 41.2591 23.2684C41.2591 23.0124 41.2591 22.7564 41.2591 22.4364ZM25.4831 48.1644C27.7551 48.1644 29.9311 48.1644 32.1391 48.1644C32.1391 44.2924 32.1391 31.9404 32.1391 28.1644C29.8671 28.1644 27.6911 28.1644 25.4831 28.1644C25.4831 31.9724 25.4831 44.2924 25.4831 48.1644ZM43.5631 48.1644C45.8031 48.1644 48.0111 48.1644 50.2191 48.1644C50.2191 46.2124 50.2191 35.7804 50.2191 33.8604C47.9791 33.8604 45.7711 33.8604 43.5631 33.8604C43.5631 35.8124 43.5631 46.2444 43.5631 48.1644Z" fill="#FAA61A"/>
</g>
</g>
</g>
</g>
</g>
</g>
</svg>
