<svg xmlns="http://www.w3.org/2000/svg" width="16.308" height="14.778" viewBox="0 0 16.308 14.778">
  <g id="Group_578" data-name="Group 578" transform="translate(-19.51 -19.51)">
    <g id="Row_21" transform="translate(20.01 20.01)">
      <g id="briefcase">
        <path id="Vector_40" d="M49.944,475.083H37.7a1.531,1.531,0,0,0-1.531,1.531v7.654A1.531,1.531,0,0,0,37.7,485.8H49.944a1.531,1.531,0,0,0,1.531-1.531v-7.654A1.531,1.531,0,0,0,49.944,475.083Z" transform="translate(-36.167 -472.022)" fill="none" stroke="#22e591" stroke-linecap="round" stroke-linejoin="round" stroke-width="1"/>
        <path id="Vector_41" d="M45.79,486.528V474.281a1.532,1.532,0,0,0-1.531-1.531H41.2a1.532,1.532,0,0,0-1.531,1.531v12.246" transform="translate(-35.074 -472.75)" fill="none" stroke="#22e591" stroke-linecap="round" stroke-linejoin="round" stroke-width="1"/>
      </g>
    </g>
  </g>
</svg>
