<svg xmlns="http://www.w3.org/2000/svg" xmlns:xlink="http://www.w3.org/1999/xlink" width="106.806" height="30" viewBox="0 0 106.806 30">
  <defs>
    <clipPath id="clip-path">
      <rect id="Rectangle_2" data-name="Rectangle 2" width="106.806" height="30" transform="translate(20 26)" fill="#fff"/>
    </clipPath>
  </defs>
  <g id="Layer_1" transform="translate(-20 -26)" clip-path="url(#clip-path)">
    <path id="Vector" d="M20,29.648h1.941a2.024,2.024,0,0,1,2.023,2.024V40.41H20Z" fill="#faa61a"/>
    <path id="Vector_2" d="M30.25,29.648h1.941a2.024,2.024,0,0,1,2.023,2.024V40.41H30.25Z" fill="#faa61a"/>
    <path id="Vector_3" d="M25.141,26h1.941a2.024,2.024,0,0,1,2.023,2.023V40.41H25.141Z" fill="#faa61a"/>
    <path id="Vector_4" d="M34.23,52.352H32.289a2.024,2.024,0,0,1-2.023-2.023V41.59H34.23Z" fill="#00a9bb"/>
    <path id="Vector_5" d="M23.98,52.352h-1.94a2.024,2.024,0,0,1-2.023-2.023V41.59H23.98Z" fill="#00a9bb"/>
    <path id="Vector_6" d="M29.088,56H27.147a2.024,2.024,0,0,1-2.023-2.023V41.59h3.964Z" fill="#00a9bb"/>
    <g id="Group">
      <path id="Vector_7" d="M39.634,52.038V40.4a17.493,17.493,0,0,1,.468-4.158,8.933,8.933,0,0,1,1.532-3.32,7.067,7.067,0,0,1,2.81-2.185,10.439,10.439,0,0,1,4.271-.78h8.258a4.711,4.711,0,0,1-4.712,4.712H49.423a4.1,4.1,0,0,0-3.449,1.59,4.1,4.1,0,0,0-.7,1.334,4.181,4.181,0,0,0-.2,1.134H56.632a4.542,4.542,0,0,1-4.541,4.541h-7.01v3.32a5.449,5.449,0,0,1-5.449,5.449Z" fill="#fff"/>
      <path id="Vector_8" d="M59.175,36.543a8.892,8.892,0,0,1,1.746-3.6A8.377,8.377,0,0,1,64.3,30.527a14.212,14.212,0,0,1,5.392-.88,14.054,14.054,0,0,1,5.364.88,8.389,8.389,0,0,1,3.378,2.412,8.921,8.921,0,0,1,1.746,3.6,19.091,19.091,0,0,1,.5,4.456,18.831,18.831,0,0,1-.5,4.427,8.9,8.9,0,0,1-1.746,3.6,8.488,8.488,0,0,1-3.378,2.427,13.938,13.938,0,0,1-5.364.895,14.068,14.068,0,0,1-5.392-.895,8.487,8.487,0,0,1-3.378-2.427,8.9,8.9,0,0,1-1.746-3.6,20.089,20.089,0,0,1,0-8.883Zm7.676-1.8a4.039,4.039,0,0,0-1.617,1.49,5.629,5.629,0,0,0-.738,2.171,19.855,19.855,0,0,0,0,5.194,5.629,5.629,0,0,0,.738,2.171,4.049,4.049,0,0,0,1.617,1.49,7.517,7.517,0,0,0,5.663,0,3.921,3.921,0,0,0,1.617-1.49,5.792,5.792,0,0,0,.724-2.171,19.855,19.855,0,0,0,0-5.194,5.767,5.767,0,0,0-.724-2.171,3.93,3.93,0,0,0-1.617-1.49,7.517,7.517,0,0,0-5.663,0Z" fill="#fff"/>
      <path id="Vector_9" d="M105.309,36.543a8.9,8.9,0,0,1,1.745-3.6,8.385,8.385,0,0,1,3.378-2.412,14.213,14.213,0,0,1,5.393-.88,14.052,14.052,0,0,1,5.363.88,8.392,8.392,0,0,1,3.378,2.412,8.934,8.934,0,0,1,1.746,3.6,19.085,19.085,0,0,1,.5,4.456,18.826,18.826,0,0,1-.5,4.427,8.908,8.908,0,0,1-1.746,3.6,8.494,8.494,0,0,1-3.378,2.427,16.611,16.611,0,0,1-10.756,0,8.494,8.494,0,0,1-3.378-2.427,8.907,8.907,0,0,1-1.745-3.6,20.054,20.054,0,0,1,0-8.883Zm7.676-1.8a4.037,4.037,0,0,0-1.618,1.49,5.638,5.638,0,0,0-.738,2.171,19.809,19.809,0,0,0,0,5.194,5.639,5.639,0,0,0,.738,2.171,4.05,4.05,0,0,0,1.618,1.49,7.515,7.515,0,0,0,5.662,0,3.914,3.914,0,0,0,1.617-1.49,5.8,5.8,0,0,0,.725-2.171,19.925,19.925,0,0,0,0-5.194,5.773,5.773,0,0,0-.725-2.171,3.914,3.914,0,0,0-1.617-1.49,7.515,7.515,0,0,0-5.662,0Z" fill="#fff"/>
      <path id="Vector_10" d="M97.728,43.27h-.312a4.542,4.542,0,0,1-4.541-4.541h10.3v6.533A6.777,6.777,0,0,1,96.4,52.038H91.513A8.3,8.3,0,0,1,84.7,49.2q-2.328-2.838-2.327-8.2T84.7,32.8a8.3,8.3,0,0,1,6.812-2.839h11.664a4.712,4.712,0,0,1-4.712,4.712h-5.59A3.855,3.855,0,0,0,89.4,36.329,8.458,8.458,0,0,0,88.306,41,8.458,8.458,0,0,0,89.4,45.666a3.858,3.858,0,0,0,3.476,1.661h4.853V43.268Z" fill="#fff"/>
    </g>
  </g>
</svg>
