<svg width="41" height="40" viewBox="0 0 41 40" fill="none" xmlns="http://www.w3.org/2000/svg">
<g id="goal">
<path id="Vector" d="M20.5 21.6673V3.33398L33.8333 10.0007L20.5 16.6673" stroke="#E6F6F8" stroke-linecap="round" stroke-linejoin="round"/>
<path id="Vector_2" d="M34.7502 17.0491C35.6371 19.7827 35.7201 22.7135 34.9893 25.4928C34.2585 28.2722 32.7446 30.7831 30.6278 32.7269C28.511 34.6706 25.8804 35.9654 23.049 36.4571C20.2175 36.9489 17.3044 36.6168 14.6562 35.5006C12.0079 34.3843 9.73615 32.5308 8.11104 30.1606C6.48592 27.7904 5.5759 25.0032 5.48924 22.1306C5.40259 19.2581 6.14294 16.4211 7.62223 13.9572C9.10151 11.4934 11.2575 9.50628 13.8336 8.23242" stroke="#E6F6F8" stroke-linecap="round" stroke-linejoin="round"/>
<path id="Vector_3" d="M13.8328 16.666C12.9976 17.7777 12.4539 19.0807 12.2512 20.4563C12.0484 21.8319 12.1931 23.2364 12.6721 24.5418C13.151 25.8471 13.949 27.0119 14.9933 27.93C16.0376 28.848 17.295 29.4902 18.651 29.798C20.0069 30.1057 21.4184 30.0693 22.7567 29.692C24.095 29.3147 25.3176 28.6085 26.3131 27.6378C27.3087 26.6671 28.0455 25.4627 28.4565 24.1344C28.8674 22.8061 28.9395 21.396 28.6661 20.0327" stroke="#E6F6F8" stroke-linecap="round" stroke-linejoin="round"/>
</g>
</svg>
