<svg width="25" height="25" viewBox="0 0 25 25" fill="none" xmlns="http://www.w3.org/2000/svg">
<g id="google" clip-path="url(#clip0_1883_11295)">
<path id="Vector" d="M23.9894 13.167C23.9894 12.177 23.9145 11.457 23.7347 10.707H12.4844V15.162H19.0908C18.9559 16.272 18.2369 17.937 16.634 19.062L16.619 19.212L20.1694 21.972L20.409 22.002C22.6861 19.902 23.9894 16.812 23.9894 13.167Z" fill="white"/>
<path id="Vector_2" d="M12.4851 24.8956C15.7209 24.8956 18.4324 23.8306 20.4248 21.9856L16.6497 19.0456C15.631 19.7506 14.2828 20.2456 12.5001 20.2456C9.32423 20.2456 6.64273 18.1456 5.68398 15.2656L5.54916 15.2806L1.834 18.1456L1.78906 18.2806C3.7515 22.1956 7.79623 24.8956 12.4851 24.8956Z" fill="white"/>
<path id="Vector_3" d="M5.66826 15.2662C5.41359 14.5162 5.26379 13.7212 5.26379 12.8962C5.26379 12.0712 5.41359 11.2762 5.65328 10.5262V10.3612L1.90816 7.45117L1.78832 7.51117C0.964394 9.13117 0.5 10.9612 0.5 12.8962C0.5 14.8312 0.964394 16.6612 1.77334 18.2812L5.66826 15.2662Z" fill="white"/>
<path id="Vector_4" d="M12.4845 5.53148C14.7315 5.53148 16.2595 6.50648 17.1134 7.31648L20.499 4.01648C18.4167 2.08148 15.7202 0.896484 12.4845 0.896484C7.79558 0.896484 3.75086 3.59648 1.77344 7.51148L5.65338 10.5265C6.62711 7.63148 9.30861 5.53148 12.4845 5.53148Z" fill="white"/>
</g>
<defs>
<clipPath id="clip0_1883_11295">
<rect width="24" height="24" fill="white" transform="translate(0.5 0.896484)"/>
</clipPath>
</defs>
</svg>
