<svg width="18" height="18" viewBox="0 0 18 18" fill="none" xmlns="http://www.w3.org/2000/svg">
<g id="Avatar">
<g clip-path="url(#clip0_2552_15049)">
<path id="Vector" d="M17.617 9.20254C17.617 8.46004 17.5609 7.92004 17.426 7.35754H8.98828V10.6988H13.9431C13.842 11.5313 13.3027 12.78 12.1005 13.6238L12.0892 13.7363L14.752 15.8063L14.9318 15.8288C16.6396 14.2538 17.617 11.9363 17.617 9.20254Z" fill="#4285F4"/>
<path id="Vector_2" d="M8.98883 18C11.4157 18 13.4493 17.2012 14.9436 15.8175L12.1123 13.6125C11.3483 14.1412 10.3371 14.5125 9.00007 14.5125C6.61818 14.5125 4.60705 12.9375 3.88799 10.7775L3.78687 10.7887L1.0005 12.9375L0.966797 13.0387C2.43863 15.975 5.47217 18 8.98883 18Z" fill="#34A853"/>
<path id="Vector_3" d="M3.87619 10.7775C3.68519 10.215 3.57284 9.61876 3.57284 9.00001C3.57284 8.38126 3.68519 7.78501 3.86496 7.22251V7.09876L1.05612 4.91626L0.96624 4.96126C0.348296 6.17626 0 7.54876 0 9.00001C0 10.4513 0.348296 11.8238 0.955004 13.0388L3.87619 10.7775Z" fill="#FBBC05"/>
<path id="Vector_4" d="M8.98835 3.47625C10.6737 3.47625 11.8197 4.2075 12.4601 4.815L14.9993 2.34C13.4375 0.88875 11.4152 0 8.98835 0C5.47169 0 2.43814 2.025 0.955078 4.96125L3.86503 7.2225C4.59533 5.05125 6.60646 3.47625 8.98835 3.47625Z" fill="#EB4335"/>
</g>
</g>
<defs>
<clipPath id="clip0_2552_15049">
<rect width="18" height="18" rx="9" fill="white"/>
</clipPath>
</defs>
</svg>
