<svg xmlns="http://www.w3.org/2000/svg" width="14.283" height="13" viewBox="0 0 14.283 13">
  <g id="Row_8" transform="translate(-34.833 -177.5)">
    <g id="user-cog">
      <path id="Vector_18" d="M46,188a2,2,0,1,0-2-2A2,2,0,0,0,46,188Z" fill="none" stroke="#243441" stroke-linecap="round" stroke-linejoin="round" stroke-width="1"/>
      <path id="Vector_19" d="M40,183.333a2.666,2.666,0,1,0-2.667-2.666A2.667,2.667,0,0,0,40,183.333Z" fill="none" stroke="#243441" stroke-linecap="round" stroke-linejoin="round" stroke-width="1"/>
      <path id="Vector_20" d="M40.667,186H38a2.667,2.667,0,0,0-2.667,2.667V190" fill="none" stroke="#243441" stroke-linecap="round" stroke-linejoin="round" stroke-width="1"/>
      <path id="Vector_21" d="M48.467,186.933l-.6-.2" fill="none" stroke="#243441" stroke-linecap="round" stroke-linejoin="round" stroke-width="1"/>
      <path id="Vector_22" d="M44.133,185.267l-.6-.2" fill="none" stroke="#243441" stroke-linecap="round" stroke-linejoin="round" stroke-width="1"/>
      <path id="Vector_23" d="M45.067,188.467l.2-.6" fill="none" stroke="#243441" stroke-linecap="round" stroke-linejoin="round" stroke-width="1"/>
      <path id="Vector_24" d="M46.733,184.133l.2-.6" fill="none" stroke="#243441" stroke-linecap="round" stroke-linejoin="round" stroke-width="1"/>
      <path id="Vector_25" d="M47.067,188.467,46.8,187.8" fill="none" stroke="#243441" stroke-linecap="round" stroke-linejoin="round" stroke-width="1"/>
      <path id="Vector_26" d="M45.2,184.2l-.267-.667" fill="none" stroke="#243441" stroke-linecap="round" stroke-linejoin="round" stroke-width="1"/>
      <path id="Vector_27" d="M43.533,187.067l.667-.267" fill="none" stroke="#243441" stroke-linecap="round" stroke-linejoin="round" stroke-width="1"/>
      <path id="Vector_28" d="M47.8,185.2l.667-.267" fill="none" stroke="#243441" stroke-linecap="round" stroke-linejoin="round" stroke-width="1"/>
    </g>
  </g>
</svg>
