<svg width="18" height="18" viewBox="0 0 18 18" fill="none" xmlns="http://www.w3.org/2000/svg">
<g id="Avatar">
<g clip-path="url(#clip0_2552_11560)">
<path id="Vector" d="M9.00465 0.136353C5.30358 0.136353 4.22116 0.140171 4.01075 0.157625C3.25123 0.220762 2.77861 0.340353 2.26371 0.596716C1.86691 0.793762 1.55396 1.02217 1.24511 1.34235C0.682626 1.92626 0.341728 2.64463 0.218322 3.49853C0.158324 3.91308 0.14087 3.99763 0.137325 6.11508C0.135961 6.8209 0.137325 7.74981 0.137325 8.99576C0.137325 12.6939 0.141416 13.7753 0.159142 13.9853C0.220504 14.7244 0.33641 15.1894 0.581857 15.698C1.05093 16.6717 1.94682 17.4026 3.00224 17.6753C3.36768 17.7694 3.77131 17.8212 4.28947 17.8458C4.50901 17.8553 6.74667 17.8621 8.98569 17.8621C11.2247 17.8621 13.4637 17.8594 13.6778 17.8485C14.2778 17.8203 14.6262 17.7735 15.0114 17.6739C16.0737 17.3999 16.9532 16.6799 17.4318 15.6926C17.6725 15.1962 17.7945 14.7135 17.8497 14.013C17.8617 13.8603 17.8668 11.4252 17.8668 8.99344C17.8668 6.56126 17.8613 4.13072 17.8493 3.97799C17.7934 3.26617 17.6714 2.78753 17.4229 2.28163C17.2191 1.86749 16.9927 1.55822 16.6641 1.24199C16.0776 0.681807 15.3604 0.340898 14.5057 0.217625C14.0915 0.157762 14.009 0.140034 11.89 0.136353H9.00465Z" fill="url(#paint0_radial_2552_11560)"/>
<path id="Vector_2" d="M9.00465 0.136353C5.30358 0.136353 4.22116 0.140171 4.01075 0.157625C3.25123 0.220762 2.77861 0.340353 2.26371 0.596716C1.86691 0.793762 1.55396 1.02217 1.24511 1.34235C0.682626 1.92626 0.341728 2.64463 0.218322 3.49853C0.158324 3.91308 0.14087 3.99763 0.137325 6.11508C0.135961 6.8209 0.137325 7.74981 0.137325 8.99576C0.137325 12.6939 0.141416 13.7753 0.159142 13.9853C0.220504 14.7244 0.33641 15.1894 0.581857 15.698C1.05093 16.6717 1.94682 17.4026 3.00224 17.6753C3.36768 17.7694 3.77131 17.8212 4.28947 17.8458C4.50901 17.8553 6.74667 17.8621 8.98569 17.8621C11.2247 17.8621 13.4637 17.8594 13.6778 17.8485C14.2778 17.8203 14.6262 17.7735 15.0114 17.6739C16.0737 17.3999 16.9532 16.6799 17.4318 15.6926C17.6725 15.1962 17.7945 14.7135 17.8497 14.013C17.8617 13.8603 17.8668 11.4252 17.8668 8.99344C17.8668 6.56126 17.8613 4.13072 17.8493 3.97799C17.7934 3.26617 17.6714 2.78753 17.4229 2.28163C17.2191 1.86749 16.9927 1.55822 16.6641 1.24199C16.0776 0.681807 15.3604 0.340898 14.5057 0.217625C14.0915 0.157762 14.009 0.140034 11.89 0.136353H9.00465Z" fill="url(#paint1_radial_2552_11560)"/>
<path id="Vector_3" d="M9.00088 2.45459C7.2233 2.45459 7.00021 2.46236 6.30205 2.49414C5.60526 2.52604 5.12963 2.63636 4.71346 2.79823C4.28298 2.96541 3.91781 3.18904 3.554 3.553C3.18992 3.91682 2.96629 4.282 2.79857 4.71236C2.6363 5.12868 2.52585 5.60445 2.49449 6.301C2.46326 6.99918 2.45508 7.22241 2.45508 9.00004C2.45508 10.7777 2.46299 11.0001 2.49462 11.6983C2.52667 12.3951 2.63698 12.8707 2.7987 13.2869C2.96602 13.7174 3.18965 14.0826 3.55359 14.4464C3.91726 14.8105 4.28243 15.0347 4.71265 15.2019C5.12909 15.3637 5.60485 15.474 6.30151 15.506C6.99967 15.5377 7.22262 15.5455 9.00006 15.5455C10.7778 15.5455 11.0002 15.5377 11.6983 15.506C12.3951 15.474 12.8713 15.3637 13.2877 15.2019C13.7181 15.0347 14.0827 14.8105 14.4464 14.4464C14.8105 14.0826 15.0341 13.7174 15.2018 13.287C15.3627 12.8707 15.4732 12.395 15.5059 11.6984C15.5373 11.0002 15.5455 10.7777 15.5455 9.00004C15.5455 7.22241 15.5373 6.99932 15.5059 6.30114C15.4732 5.60432 15.3627 5.12868 15.2018 4.7125C15.0341 4.282 14.8105 3.91682 14.4464 3.553C14.0823 3.18891 13.7182 2.96527 13.2873 2.79823C12.8701 2.63636 12.3942 2.52604 11.6974 2.49414C10.9992 2.46236 10.777 2.45459 8.99883 2.45459H9.00088ZM8.41372 3.63414C8.58798 3.63386 8.78243 3.63414 9.00088 3.63414C10.7485 3.63414 10.9556 3.64041 11.6457 3.67177C12.2839 3.70095 12.6302 3.80759 12.8609 3.89718C13.1664 4.01582 13.3842 4.15763 13.6131 4.38673C13.8422 4.61582 13.984 4.834 14.1029 5.13945C14.1925 5.36991 14.2993 5.71627 14.3283 6.35445C14.3597 7.04445 14.3665 7.25173 14.3665 8.99854C14.3665 10.7454 14.3597 10.9526 14.3283 11.6426C14.2991 12.2808 14.1925 12.6272 14.1029 12.8576C13.9843 13.1631 13.8422 13.3806 13.6131 13.6095C13.384 13.8386 13.1665 13.9805 12.8609 14.0991C12.6305 14.1891 12.2839 14.2955 11.6457 14.3246C10.9557 14.356 10.7485 14.3628 9.00088 14.3628C7.25316 14.3628 7.04603 14.356 6.35605 14.3246C5.71789 14.2952 5.37154 14.1885 5.14068 14.099C4.83523 13.9803 4.61706 13.8385 4.38797 13.6094C4.15889 13.3803 4.01708 13.1627 3.89817 12.8571C3.80858 12.6266 3.70181 12.2803 3.67277 11.6421C3.64141 10.9521 3.63513 10.7448 3.63513 8.99691C3.63513 7.249 3.64141 7.04282 3.67277 6.35282C3.70195 5.71464 3.80858 5.36827 3.89817 5.13754C4.0168 4.83209 4.15889 4.61391 4.38797 4.38482C4.61706 4.15573 4.83523 4.01391 5.14068 3.895C5.3714 3.805 5.71789 3.69864 6.35605 3.66932C6.95985 3.64204 7.19384 3.63386 8.41372 3.6325V3.63414ZM12.4947 4.72095C12.0611 4.72095 11.7093 5.07236 11.7093 5.50613C11.7093 5.93977 12.0611 6.29159 12.4947 6.29159C12.9283 6.29159 13.2801 5.93977 13.2801 5.50613C13.2801 5.0725 12.9283 4.72068 12.4947 4.72068V4.72095ZM9.00088 5.63868C7.14462 5.63868 5.63962 7.14373 5.63962 9.00004C5.63962 10.8564 7.14462 12.3607 9.00088 12.3607C10.8571 12.3607 12.3616 10.8564 12.3616 9.00004C12.3616 7.14373 10.857 5.63868 9.00074 5.63868H9.00088ZM9.00088 6.81823C10.2058 6.81823 11.1826 7.795 11.1826 9.00004C11.1826 10.205 10.2058 11.1819 9.00088 11.1819C7.79587 11.1819 6.81913 10.205 6.81913 9.00004C6.81913 7.795 7.79587 6.81823 9.00088 6.81823Z" fill="white"/>
</g>
</g>
<defs>
<radialGradient id="paint0_radial_2552_11560" cx="0" cy="0" r="1" gradientUnits="userSpaceOnUse" gradientTransform="translate(4.84629 19.2274) rotate(-90) scale(17.5676 16.3432)">
<stop stop-color="#FFDD55"/>
<stop offset="0.1" stop-color="#FFDD55"/>
<stop offset="0.5" stop-color="#FF543E"/>
<stop offset="1" stop-color="#C837AB"/>
</radialGradient>
<radialGradient id="paint1_radial_2552_11560" cx="0" cy="0" r="1" gradientUnits="userSpaceOnUse" gradientTransform="translate(-2.83316 1.41329) rotate(78.678) scale(7.85284 32.377)">
<stop stop-color="#3771C8"/>
<stop offset="0.128" stop-color="#3771C8"/>
<stop offset="1" stop-color="#6600FF" stop-opacity="0"/>
</radialGradient>
<clipPath id="clip0_2552_11560">
<rect width="18" height="18" rx="9" fill="white"/>
</clipPath>
</defs>
</svg>
