<svg width="25" height="25" viewBox="0 0 25 25" fill="none" xmlns="http://www.w3.org/2000/svg">
<g id="instagram" clip-path="url(#clip0_1883_11303)">
<path id="Vector" d="M12.5059 1.07812C7.57099 1.07812 6.12772 1.08322 5.84718 1.10649C4.83445 1.19067 4.20427 1.35012 3.51772 1.69194C2.98863 1.95467 2.57136 2.25922 2.15954 2.68613C1.40954 3.46467 0.954994 4.42249 0.790449 5.56103C0.710449 6.11376 0.687176 6.22649 0.682449 9.04976C0.680631 9.99085 0.682449 11.2294 0.682449 12.8907C0.682449 17.8216 0.687903 19.2634 0.71154 19.5434C0.793358 20.5289 0.947903 21.1489 1.27518 21.827C1.90063 23.1252 3.09518 24.0998 4.50245 24.4634C4.98972 24.5889 5.5279 24.6579 6.21881 24.6907C6.51154 24.7034 9.49517 24.7125 12.4806 24.7125C15.4661 24.7125 18.4515 24.7089 18.737 24.6943C19.537 24.6567 20.0015 24.5943 20.5152 24.4616C21.9315 24.0961 23.1043 23.1361 23.7424 21.8198C24.0634 21.1579 24.2261 20.5143 24.2997 19.5803C24.3157 19.3767 24.3224 16.1299 24.3224 12.8876C24.3224 9.64467 24.3152 6.40394 24.2992 6.20031C24.2246 5.25122 24.0619 4.61303 23.7306 3.93849C23.4588 3.38631 23.157 2.97394 22.7188 2.55231C21.9368 1.8054 20.9804 1.35085 19.8408 1.18649C19.2886 1.10667 19.1786 1.08303 16.3532 1.07812H12.5059Z" fill="#FFDD55"/>
<path id="Vector_2" d="M12.5059 1.07812C7.57099 1.07812 6.12772 1.08322 5.84718 1.10649C4.83445 1.19067 4.20427 1.35012 3.51772 1.69194C2.98863 1.95467 2.57136 2.25922 2.15954 2.68613C1.40954 3.46467 0.954994 4.42249 0.790449 5.56103C0.710449 6.11376 0.687176 6.22649 0.682449 9.04976C0.680631 9.99085 0.682449 11.2294 0.682449 12.8907C0.682449 17.8216 0.687903 19.2634 0.71154 19.5434C0.793358 20.5289 0.947903 21.1489 1.27518 21.827C1.90063 23.1252 3.09518 24.0998 4.50245 24.4634C4.98972 24.5889 5.5279 24.6579 6.21881 24.6907C6.51154 24.7034 9.49517 24.7125 12.4806 24.7125C15.4661 24.7125 18.4515 24.7089 18.737 24.6943C19.537 24.6567 20.0015 24.5943 20.5152 24.4616C21.9315 24.0961 23.1043 23.1361 23.7424 21.8198C24.0634 21.1579 24.2261 20.5143 24.2997 19.5803C24.3157 19.3767 24.3224 16.1299 24.3224 12.8876C24.3224 9.64467 24.3152 6.40394 24.2992 6.20031C24.2246 5.25122 24.0619 4.61303 23.7306 3.93849C23.4588 3.38631 23.157 2.97394 22.7188 2.55231C21.9368 1.8054 20.9804 1.35085 19.8408 1.18649C19.2886 1.10667 19.1786 1.08303 16.3532 1.07812H12.5059Z" fill="white"/>
<path id="Vector_3" d="M12.5014 4.16992C10.1313 4.16992 9.8338 4.18029 8.90289 4.22265C7.9738 4.26519 7.33962 4.41229 6.78471 4.6281C6.21071 4.85101 5.7238 5.14919 5.23871 5.63447C4.75326 6.11956 4.45507 6.60647 4.23144 7.18029C4.01507 7.73538 3.8678 8.36974 3.82598 9.29847C3.78435 10.2294 3.77344 10.527 3.77344 12.8972C3.77344 15.2674 3.78398 15.5639 3.82616 16.4948C3.86889 17.4239 4.01598 18.0581 4.23162 18.613C4.45471 19.187 4.75289 19.6739 5.23816 20.159C5.72307 20.6445 6.20998 20.9434 6.78362 21.1663C7.33889 21.3821 7.97326 21.5292 8.90216 21.5717C9.83307 21.6141 10.1303 21.6245 12.5003 21.6245C14.8707 21.6245 15.1673 21.6141 16.0982 21.5717C17.0273 21.5292 17.6622 21.3821 18.2174 21.1663C18.7913 20.9434 19.2774 20.6445 19.7623 20.159C20.2478 19.6739 20.546 19.187 20.7696 18.6132C20.9842 18.0581 21.1314 17.4237 21.1751 16.495C21.2169 15.5641 21.2278 15.2674 21.2278 12.8972C21.2278 10.527 21.2169 10.2296 21.1751 9.29865C21.1314 8.36956 20.9842 7.73538 20.7696 7.18047C20.546 6.60647 20.2478 6.11956 19.7623 5.63447C19.2769 5.14901 18.7914 4.85083 18.2169 4.6281C17.6605 4.41229 17.026 4.26519 16.0969 4.22265C15.166 4.18029 14.8696 4.16992 12.4987 4.16992H12.5014ZM11.7185 5.74265C11.9509 5.74229 12.2102 5.74265 12.5014 5.74265C14.8316 5.74265 15.1078 5.75101 16.028 5.79283C16.8789 5.83174 17.3407 5.97392 17.6483 6.09338C18.0556 6.25156 18.346 6.44065 18.6513 6.7461C18.9567 7.05156 19.1458 7.34247 19.3043 7.74974C19.4238 8.05701 19.5662 8.51883 19.6049 9.36974C19.6467 10.2897 19.6558 10.5661 19.6558 12.8952C19.6558 15.2243 19.6467 15.5006 19.6049 16.4206C19.566 17.2716 19.4238 17.7334 19.3043 18.0406C19.1462 18.4479 18.9567 18.7379 18.6513 19.0432C18.3458 19.3486 18.0558 19.5377 17.6483 19.6959C17.3411 19.8159 16.8789 19.9577 16.028 19.9966C15.108 20.0385 14.8316 20.0476 12.5014 20.0476C10.1711 20.0476 9.89489 20.0385 8.97489 19.9966C8.12398 19.9574 7.66216 19.8152 7.35435 19.6957C6.94707 19.5376 6.65616 19.3485 6.35071 19.043C6.04526 18.7376 5.85616 18.4474 5.69762 18.0399C5.57816 17.7326 5.4358 17.2708 5.39707 16.4199C5.35526 15.4999 5.34689 15.2236 5.34689 12.893C5.34689 10.5625 5.35526 10.2876 5.39707 9.36756C5.43598 8.51665 5.57816 8.05483 5.69762 7.74719C5.8558 7.33992 6.04526 7.04901 6.35071 6.74356C6.65616 6.4381 6.94707 6.24901 7.35435 6.09047C7.66198 5.97047 8.12398 5.82865 8.97489 5.78956C9.77998 5.75319 10.092 5.74229 11.7185 5.74047V5.74265ZM17.16 7.19174C16.5818 7.19174 16.1127 7.66028 16.1127 8.23865C16.1127 8.81683 16.5818 9.28592 17.16 9.28592C17.7382 9.28592 18.2073 8.81683 18.2073 8.23865C18.2073 7.66047 17.7382 7.19138 17.16 7.19138V7.19174ZM12.5014 8.41538C10.0263 8.41538 8.01962 10.4221 8.01962 12.8972C8.01962 15.3723 10.0263 17.3781 12.5014 17.3781C14.9765 17.3781 16.9825 15.3723 16.9825 12.8972C16.9825 10.4221 14.9763 8.41538 12.5013 8.41538H12.5014ZM12.5014 9.9881C14.108 9.9881 15.4105 11.2905 15.4105 12.8972C15.4105 14.5037 14.108 15.8063 12.5014 15.8063C10.8947 15.8063 9.59235 14.5037 9.59235 12.8972C9.59235 11.2905 10.8947 9.9881 12.5014 9.9881Z" fill="#024457"/>
</g>
<defs>
<clipPath id="clip0_1883_11303">
<rect width="24.0007" height="24" fill="white" transform="translate(0.5 0.896484)"/>
</clipPath>
</defs>
</svg>
