<svg width="143" height="40" viewBox="0 0 143 40" fill="none" xmlns="http://www.w3.org/2000/svg">
<g id="Layer_1" clip-path="url(#clip0_1554_85987)">
<path id="Vector" d="M0.5 4.86328H3.08804C4.57766 4.86328 5.78593 6.07155 5.78593 7.56117V19.2122H0.5V4.86328Z" fill="#FAA61A"/>
<path id="Vector_2" d="M14.166 4.86328H16.7541C18.2437 4.86328 19.4519 6.07155 19.4519 7.56117V19.2122H14.166V4.86328Z" fill="#FAA61A"/>
<path id="Vector_3" d="M7.35547 0H9.94351C11.4331 0 12.6414 1.20827 12.6414 2.69789V19.2128H7.35547V0Z" fill="#FAA61A"/>
<path id="Vector_4" d="M19.4746 35.1367H16.8866C15.3969 35.1367 14.1887 33.9285 14.1887 32.4388L14.1887 20.7878H19.4746V35.1367Z" fill="#00A9BB"/>
<path id="Vector_5" d="M5.80664 35.1367H3.22053C1.73091 35.1367 0.52264 33.9285 0.52264 32.4388L0.52264 20.7878H5.80664L5.80664 35.1367Z" fill="#00A9BB"/>
<path id="Vector_6" d="M12.6172 40H10.0291C8.53953 40 7.33126 38.7917 7.33126 37.3021L7.33126 20.7872H12.6172L12.6172 40Z" fill="#00A9BB"/>
<g id="Group">
<path id="Vector_7" d="M26.6797 34.7171V19.2042C26.6797 17.2117 26.8878 15.3636 27.304 13.6601C27.7203 11.9566 28.4005 10.4824 29.3467 9.23362C30.2929 7.98489 31.5416 7.01365 33.0929 6.31991C34.6442 5.62617 36.5424 5.2793 38.7874 5.2793H49.7986C49.7986 8.74801 46.987 11.5615 43.5164 11.5615H39.7316C38.5966 11.5615 37.6562 11.7696 36.9124 12.1859C36.1685 12.6021 35.575 13.1012 35.1337 13.6813C34.6924 14.2613 34.3821 14.8549 34.2068 15.46C34.0295 16.0651 33.9428 16.5699 33.9428 16.9727H49.3438C49.3438 20.3162 46.6324 23.0275 43.289 23.0275H33.9428V27.454C33.9428 31.4661 30.6899 34.719 26.6777 34.719L26.6797 34.7171Z" fill="#025B74"/>
<path id="Vector_8" d="M52.7332 14.0573C53.1745 12.2169 53.9492 10.6136 55.0611 9.25117C56.1711 7.88874 57.6723 6.81729 59.5647 6.03491C61.457 5.25252 63.8524 4.86133 66.7545 4.86133C69.6567 4.86133 72.0135 5.25252 73.9058 6.03491C75.7982 6.81729 77.2975 7.88874 78.4094 9.25117C79.5194 10.6136 80.294 12.215 80.7373 14.0573C81.1786 15.8995 81.4002 17.8786 81.4002 19.9984C81.4002 22.1182 81.1786 24.0606 80.7373 25.901C80.296 27.7432 79.5194 29.3446 78.4094 30.7071C77.2994 32.0695 75.7982 33.1487 73.9058 33.9426C72.0135 34.7365 69.6297 35.1355 66.7545 35.1355C63.8793 35.1355 61.457 34.7385 59.5647 33.9426C57.6723 33.1487 56.1711 32.0695 55.0611 30.7071C53.9511 29.3446 53.1745 27.7432 52.7332 25.901C52.2919 24.0606 52.0703 22.0931 52.0703 19.9984C52.0703 17.9037 52.29 15.8995 52.7332 14.0573ZM62.9678 11.6542C62.0351 12.1456 61.3144 12.8085 60.8115 13.641C60.3066 14.4735 59.979 15.439 59.8267 16.5355C59.6745 17.632 59.5993 18.7863 59.5993 19.9984C59.5993 21.2105 59.6745 22.3629 59.8267 23.4613C59.979 24.5578 60.3066 25.5233 60.8115 26.3558C61.3164 27.1883 62.0351 27.8512 62.9678 28.3426C63.9005 28.834 65.1628 29.0806 66.7526 29.0806C68.3424 29.0806 69.5719 28.834 70.5181 28.3426C71.4643 27.8512 72.183 27.1883 72.6744 26.3558C73.1658 25.5233 73.4877 24.5578 73.6399 23.4613C73.7921 22.3648 73.8673 21.2105 73.8673 19.9984C73.8673 18.7863 73.7921 17.6339 73.6399 16.5355C73.4877 15.439 73.1678 14.4735 72.6744 13.641C72.1811 12.8085 71.4643 12.1456 70.5181 11.6542C69.5719 11.1628 68.3174 10.9162 66.7526 10.9162C65.1878 10.9162 63.9025 11.1628 62.9678 11.6542Z" fill="#025B74"/>
<path id="Vector_9" d="M114.245 14.0573C114.686 12.2169 115.461 10.6136 116.573 9.25117C117.683 7.88874 119.184 6.81729 121.076 6.03491C122.969 5.25252 125.364 4.86133 128.266 4.86133C131.168 4.86133 133.525 5.25252 135.418 6.03491C137.31 6.81729 138.809 7.88874 139.921 9.25117C141.031 10.6136 141.806 12.215 142.249 14.0573C142.69 15.8995 142.912 17.8786 142.912 19.9984C142.912 22.1182 142.69 24.0606 142.249 25.901C141.808 27.7432 141.031 29.3446 139.921 30.7071C138.811 32.0695 137.31 33.1487 135.418 33.9426C133.525 34.7365 131.141 35.1355 128.266 35.1355C125.391 35.1355 122.969 34.7385 121.076 33.9426C119.184 33.1487 117.683 32.0695 116.573 30.7071C115.463 29.3446 114.686 27.7432 114.245 25.901C113.804 24.0606 113.582 22.0931 113.582 19.9984C113.582 17.9037 113.802 15.8995 114.245 14.0573ZM124.48 11.6542C123.547 12.1456 122.826 12.8085 122.323 13.641C121.818 14.4735 121.491 15.439 121.338 16.5355C121.186 17.632 121.111 18.7863 121.111 19.9984C121.111 21.2105 121.186 22.3629 121.338 23.4613C121.491 24.5578 121.818 25.5233 122.323 26.3558C122.828 27.1883 123.547 27.8512 124.48 28.3426C125.412 28.834 126.674 29.0806 128.264 29.0806C129.854 29.0806 131.084 28.834 132.03 28.3426C132.976 27.8512 133.695 27.1883 134.186 26.3558C134.678 25.5233 134.999 24.5578 135.152 23.4613C135.304 22.3648 135.379 21.2105 135.379 19.9984C135.379 18.7863 135.304 17.6339 135.152 16.5355C134.999 15.437 134.679 14.4735 134.186 13.641C133.695 12.8085 132.976 12.1456 132.03 11.6542C131.084 11.1628 129.829 10.9162 128.264 10.9162C126.7 10.9162 125.414 11.1628 124.48 11.6542Z" fill="#025B74"/>
<path id="Vector_10" d="M104.137 23.0255H103.721C100.377 23.0255 97.6661 20.3142 97.6661 16.9707H111.402V25.681C111.402 30.6721 107.357 34.717 102.366 34.717H95.8508C91.8637 34.717 88.8382 33.4567 86.7686 30.9323C84.6989 28.4098 83.666 24.7638 83.666 19.9962C83.666 15.2287 84.7008 11.5827 86.7686 9.06014C88.8363 6.53762 91.8637 5.27539 95.8508 5.27539H111.402C111.402 8.7441 108.591 11.5576 105.12 11.5576H97.6661C95.5463 11.5576 94.0008 12.2957 93.0315 13.7718C92.0603 15.2479 91.5747 17.3234 91.5747 19.9962C91.5747 22.669 92.0603 24.7445 93.0315 26.2206C94.0028 27.6967 95.5483 28.4348 97.6661 28.4348H104.137V23.0236V23.0255Z" fill="#025B74"/>
</g>
</g>
<defs>
<clipPath id="clip0_1554_85987">
<rect width="142.408" height="40" fill="white" transform="translate(0.5)"/>
</clipPath>
</defs>
</svg>
