<svg width="17" height="16" viewBox="0 0 17 16" fill="none" xmlns="http://www.w3.org/2000/svg">
<g id="map-pin">
<path id="Vector" d="M13.8332 6.66732C13.8332 10.6673 8.49984 14.6673 8.49984 14.6673C8.49984 14.6673 3.1665 10.6673 3.1665 6.66732C3.1665 5.25283 3.72841 3.89628 4.7286 2.89608C5.72879 1.89589 7.08535 1.33398 8.49984 1.33398C9.91432 1.33398 11.2709 1.89589 12.2711 2.89608C13.2713 3.89628 13.8332 5.25283 13.8332 6.66732Z" stroke="#6B7280" stroke-linecap="round" stroke-linejoin="round"/>
<path id="Vector_2" d="M8.5 8.66602C9.60457 8.66602 10.5 7.77059 10.5 6.66602C10.5 5.56145 9.60457 4.66602 8.5 4.66602C7.39543 4.66602 6.5 5.56145 6.5 6.66602C6.5 7.77059 7.39543 8.66602 8.5 8.66602Z" stroke="#6B7280" stroke-linecap="round" stroke-linejoin="round"/>
</g>
</svg>
