<svg width="16" height="16" viewBox="0 0 16 16" fill="none" xmlns="http://www.w3.org/2000/svg">
<g id="more-horizontal">
<path id="Vector" d="M8.00016 8.66634C8.36835 8.66634 8.66683 8.36786 8.66683 7.99967C8.66683 7.63148 8.36835 7.33301 8.00016 7.33301C7.63197 7.33301 7.3335 7.63148 7.3335 7.99967C7.3335 8.36786 7.63197 8.66634 8.00016 8.66634Z" stroke="#1F2937" stroke-linecap="round" stroke-linejoin="round"/>
<path id="Vector_2" d="M12.6667 8.66634C13.0349 8.66634 13.3333 8.36786 13.3333 7.99967C13.3333 7.63148 13.0349 7.33301 12.6667 7.33301C12.2985 7.33301 12 7.63148 12 7.99967C12 8.36786 12.2985 8.66634 12.6667 8.66634Z" stroke="#1F2937" stroke-linecap="round" stroke-linejoin="round"/>
<path id="Vector_3" d="M3.33317 8.66634C3.70136 8.66634 3.99984 8.36786 3.99984 7.99967C3.99984 7.63148 3.70136 7.33301 3.33317 7.33301C2.96498 7.33301 2.6665 7.63148 2.6665 7.99967C2.6665 8.36786 2.96498 8.66634 3.33317 8.66634Z" stroke="#1F2937" stroke-linecap="round" stroke-linejoin="round"/>
</g>
</svg>
