<svg width="14" height="14" viewBox="0 0 14 14" fill="none" xmlns="http://www.w3.org/2000/svg">
<g id="pen" clip-path="url(#clip0_2444_48560)">
<path id="Vector" d="M9.91699 1.75003C10.0656 1.57446 10.2493 1.43156 10.4566 1.33042C10.6638 1.22929 10.89 1.17214 11.1208 1.16262C11.3515 1.1531 11.5817 1.19141 11.7967 1.27513C12.0117 1.35884 12.2068 1.48611 12.3695 1.64883C12.5322 1.81155 12.659 2.00614 12.7418 2.22022C12.8246 2.43429 12.8616 2.66314 12.8503 2.89218C12.8391 3.12122 12.78 3.34543 12.6767 3.55052C12.5734 3.75561 12.4282 3.93708 12.2503 4.08336L4.37533 11.9584L1.16699 12.8334L2.04199 9.62502L9.91699 1.75003Z" stroke="#00A9BB" stroke-linecap="round" stroke-linejoin="round"/>
</g>
<defs>
<clipPath id="clip0_2444_48560">
<rect width="14" height="14" fill="white"/>
</clipPath>
</defs>
</svg>
