<svg width="17" height="17" viewBox="0 0 17 17" fill="none" xmlns="http://www.w3.org/2000/svg">
<g id="pencil">
<path id="Vector" d="M11.7396 2.42395C11.9094 2.22331 12.1194 2.05999 12.3563 1.9444C12.5932 1.82882 12.8517 1.76351 13.1154 1.75263C13.3791 1.74175 13.6422 1.78554 13.8879 1.88121C14.1336 1.97688 14.3565 2.12233 14.5425 2.3083C14.7285 2.49426 14.8734 2.71666 14.968 2.96131C15.0626 3.20596 15.1048 3.46751 15.092 3.72927C15.0792 3.99103 15.0116 4.24727 14.8936 4.48166C14.7755 4.71605 14.6095 4.92344 14.4063 5.09062L5.40629 14.0906L1.73962 15.0906L2.73962 11.4239L11.7396 2.42395Z" stroke="#1F2937" stroke-linecap="round" stroke-linejoin="round"/>
<path id="Vector_2" d="M10.4062 3.75728L13.0729 6.42395" stroke="#1F2937" stroke-linecap="round" stroke-linejoin="round"/>
</g>
</svg>
