<svg width="16" height="16" viewBox="0 0 16 16" fill="none" xmlns="http://www.w3.org/2000/svg">
<g id="pin">
<path id="Vector" d="M8 11.3333V14.6667" stroke="black" stroke-linecap="round" stroke-linejoin="round"/>
<path id="Vector_2" d="M3.33337 11.3333H12.6667V10.16C12.6666 9.91195 12.5972 9.66885 12.4665 9.45803C12.3358 9.24722 12.1488 9.07705 11.9267 8.96667L10.74 8.36667C10.5179 8.25628 10.331 8.08612 10.2002 7.87531C10.0695 7.66449 10.0002 7.42139 10 7.17334V4H10.6667C11.0203 4 11.3595 3.85953 11.6095 3.60948C11.8596 3.35943 12 3.02029 12 2.66667C12 2.31305 11.8596 1.97391 11.6095 1.72386C11.3595 1.47381 11.0203 1.33334 10.6667 1.33334H5.33337C4.97975 1.33334 4.64061 1.47381 4.39056 1.72386C4.14052 1.97391 4.00004 2.31305 4.00004 2.66667C4.00004 3.02029 4.14052 3.35943 4.39056 3.60948C4.64061 3.85953 4.97975 4 5.33337 4H6.00004V7.17334C5.99991 7.42139 5.93058 7.66449 5.79985 7.87531C5.66913 8.08612 5.48218 8.25628 5.26004 8.36667L4.07337 8.96667C3.85123 9.07705 3.66429 9.24722 3.53356 9.45803C3.40283 9.66885 3.33351 9.91195 3.33337 10.16V11.3333Z" stroke="black" stroke-linecap="round" stroke-linejoin="round"/>
</g>
</svg>
