<svg width="141" height="56" viewBox="0 0 141 56" fill="none" xmlns="http://www.w3.org/2000/svg">
<g id="Logo=1, Color=Dark">
<path id="Logo" fill-rule="evenodd" clip-rule="evenodd" d="M36.0537 19.2355L36.3048 19.684C36.621 20.2289 36.7881 20.8476 36.7891 21.4776V35.3791C36.784 36.0086 36.6172 36.6262 36.3048 37.1728L36.0357 37.6213C35.7285 38.1703 35.2753 38.6234 34.7264 38.9307L22.6904 45.8903C22.1454 46.2065 21.5267 46.3735 20.8967 46.3747H20.3944C19.7635 46.3806 19.143 46.213 18.6007 45.8903L6.54681 38.9487C6.00956 38.6261 5.55988 38.1765 5.23739 37.6392L4.98626 37.1908C4.67011 36.6457 4.50307 36.0271 4.50195 35.397V21.4955C4.50307 20.8656 4.67011 20.2468 4.98626 19.7019L5.23739 19.2535C5.55175 18.7099 6.00326 18.2583 6.54681 17.944L18.5827 10.9843C19.1278 10.6682 19.7464 10.5011 20.3765 10.5H20.8967C21.5267 10.5011 22.1454 10.6682 22.6904 10.9843L34.7264 17.9261C35.273 18.2425 35.7298 18.6932 36.0537 19.2355ZM20.8967 14.0874H20.3765L9.88318 20.1502L20.6455 26.3565L31.408 20.1502L20.8967 14.0874ZM32.9326 35.8276L22.4393 41.8905V29.4778L33.2016 23.2536V35.3792L32.9326 35.8276ZM83.5652 37.0475H79.8457V17.4169H83.5652V37.0475ZM50.002 37.4683H54.1605V30.3392H55.9686L60.3855 37.4683H64.8282L59.9465 29.6161C62.1162 28.9703 63.7434 27.498 63.7434 24.7084V24.605C63.7434 20.7823 60.9797 19 56.6144 19H50.002V37.4683ZM54.1605 27.498V22.2029H56.511C58.5258 22.2029 59.6623 22.8487 59.6623 24.7342V24.8375C59.6623 26.6198 58.6033 27.498 56.511 27.498H54.1605ZM71.5825 37.3309C75.2762 37.3309 77.6008 35.7037 78.0399 32.7849H74.5013C74.2688 33.9214 73.4164 34.6705 71.6859 34.6705C69.6453 34.6705 68.4313 33.379 68.328 31.1318H78.0658V30.0986C78.0658 25.2684 74.9662 23.2279 71.4792 23.2279C67.5531 23.2279 64.5309 25.9917 64.5309 30.2536V30.4602C64.5309 34.7738 67.5014 37.3309 71.5825 37.3309ZM68.3796 28.833C68.6637 26.9215 69.8003 25.8109 71.4792 25.8109C73.2615 25.8109 74.2947 26.7924 74.4238 28.833H68.3796ZM90.7004 37.332C92.922 37.332 94.2905 36.2988 94.9879 34.9299V37.0479H98.7075V23.5389H94.9879V31.4687C94.9879 33.4576 93.748 34.4391 92.173 34.4391C90.5718 34.4391 89.8219 33.5609 89.8219 31.727V23.5389H86.1028V32.2436C86.1028 35.7822 88.0658 37.332 90.7004 37.332ZM104.993 37.0468H101.247V23.5378H104.993V25.6042C105.664 24.3385 107.11 23.2279 109.125 23.2279C110.908 23.2279 112.251 23.977 112.896 25.5784C113.981 23.9511 115.738 23.2279 117.442 23.2279C119.948 23.2279 121.885 24.8035 121.885 28.3939V37.0468H118.166V28.8071C118.166 27.0765 117.39 26.3016 116.047 26.3016C114.601 26.3016 113.439 27.2315 113.439 29.0654V37.0468H109.719V28.8071C109.719 27.0765 108.919 26.3016 107.601 26.3016C106.155 26.3016 104.993 27.2315 104.993 29.0654V37.0468ZM130.533 37.3309C134.228 37.3309 136.553 35.7037 136.991 32.7849H133.452C133.22 33.9214 132.367 34.6705 130.637 34.6705C128.596 34.6705 127.383 33.379 127.279 31.1318H137.017V30.0986C137.017 25.2684 133.917 23.2279 130.43 23.2279C126.504 23.2279 123.482 25.9917 123.482 30.2536V30.4602C123.482 34.7738 126.452 37.3309 130.533 37.3309ZM127.331 28.833C127.615 26.9215 128.752 25.8109 130.43 25.8109C132.213 25.8109 133.246 26.7924 133.375 28.833H127.331Z" fill="#B0E4EA"/>
</g>
</svg>
