<svg width="91" height="90" viewBox="0 0 91 90" fill="none" xmlns="http://www.w3.org/2000/svg">
<g id="Image 6">
<g id="Group">
<g id="Group_2">
<g id="Group_3">
<g id="Group_4">
<g id="Layer_1">
<path id="Vector" d="M72.015 8.80694C72.271 8.90294 72.559 9.03094 72.815 9.12694C74.447 9.86294 75.279 11.7189 74.735 13.4469C74.191 15.1429 72.431 16.2309 70.703 15.8789C70.223 15.7829 69.935 15.8789 69.615 16.2629C68.847 17.2549 67.727 18.0869 67.343 19.1749C66.927 20.2629 67.215 21.6389 67.215 22.8549C67.215 26.6629 67.183 30.4709 67.247 34.2789C67.247 34.7269 67.471 35.2389 67.695 35.6549C68.207 36.5509 68.815 37.3829 69.327 38.2789C69.807 39.1109 69.679 39.7509 69.039 40.1349C68.399 40.5189 67.727 40.2949 67.279 39.4629C65.551 36.3589 63.215 33.8949 60.207 32.0069C48.527 24.6469 32.687 31.3989 29.903 44.8709C29.807 45.2869 29.743 45.7349 29.487 46.0549C29.071 46.6309 28.431 46.6629 27.855 46.2469C25.519 44.5189 22.927 43.6229 20.047 43.5909C19.311 43.5909 18.831 43.0149 18.831 42.3749C18.863 41.7349 19.375 41.1909 20.111 41.2229C21.295 41.2869 22.479 41.4149 23.727 41.5109C23.727 41.2869 23.727 41.0309 23.727 40.7749C23.727 33.8309 23.727 26.8549 23.695 19.9109C23.695 19.4949 23.503 18.9829 23.247 18.6309C22.607 17.7669 21.871 16.9349 21.167 16.1349C21.007 15.9749 20.687 15.8149 20.463 15.8469C18.351 16.1349 16.623 15.1429 16.143 13.2869C15.663 11.3989 16.655 9.70294 18.639 8.93494C18.703 8.90294 18.767 8.83894 18.831 8.80694C19.375 8.80694 19.887 8.80694 20.431 8.80694C20.495 8.83894 20.527 8.93494 20.591 8.93494C22.863 9.83094 23.599 11.4949 22.863 13.8309C22.799 14.0549 22.927 14.4389 23.087 14.6309C23.887 15.6229 24.751 16.5509 25.487 17.5749C25.807 18.0229 26.063 18.6629 26.095 19.2069C26.127 23.6869 26.127 28.1349 26.127 32.6149C26.127 35.6549 26.127 38.6949 26.127 41.7349C26.127 41.9909 26.191 42.3749 26.351 42.4709C26.799 42.7909 27.311 42.9829 27.791 43.2069C27.855 43.0469 27.919 42.9509 27.951 42.8549C28.943 39.4309 30.607 36.4229 33.007 33.7989C33.231 33.5429 33.359 33.1269 33.359 32.8069C33.391 28.6789 33.359 24.5509 33.391 20.4229C33.391 19.9109 33.231 19.6549 32.783 19.3669C31.343 18.5669 30.703 16.9029 31.151 15.3349C31.567 13.8309 33.007 12.7429 34.575 12.7109C36.175 12.7109 37.647 13.8309 38.063 15.3349C38.479 16.9029 37.839 18.5349 36.367 19.3349C35.919 19.5909 35.791 19.8469 35.791 20.3269C35.823 23.6869 35.791 27.0469 35.791 30.4069C35.791 30.6309 35.823 30.8229 35.855 31.1109C36.015 31.0469 36.079 31.0149 36.143 30.9509C38.479 29.2229 41.007 27.9749 43.823 27.2709C44.367 27.1429 44.367 26.8229 44.367 26.3749C44.367 23.0469 44.367 19.7189 44.367 16.3589C44.367 15.8469 44.239 15.5589 43.759 15.3029C42.511 14.5989 41.903 13.4469 41.999 12.0069C42.095 10.5669 42.863 9.54294 44.207 8.96694C44.399 8.87094 44.559 8.77494 44.751 8.71094C45.295 8.71094 45.807 8.71094 46.351 8.71094C46.447 8.77494 46.575 8.83894 46.671 8.90294C48.079 9.44694 48.943 10.4389 49.071 11.9749C49.199 13.5109 48.527 14.6629 47.215 15.4629C46.959 15.6229 46.767 16.0389 46.767 16.3269C46.735 19.5909 46.735 22.8229 46.735 26.0869C46.735 26.2789 46.767 26.4389 46.767 26.4069C49.647 26.5989 52.431 26.7589 55.279 26.9509C55.279 24.7109 55.279 22.3749 55.247 20.0389C55.247 19.8469 54.959 19.5909 54.735 19.4309C53.263 18.5349 52.591 16.9349 53.007 15.3669C53.423 13.8309 54.895 12.7109 56.495 12.7429C58.063 12.7749 59.471 13.8629 59.887 15.3669C60.335 16.9349 59.663 18.5989 58.159 19.4309C57.743 19.6549 57.615 19.9109 57.615 20.3589C57.647 22.6949 57.647 24.9989 57.615 27.3349C57.615 27.8469 57.775 28.0709 58.223 28.2629C60.399 29.1269 62.351 30.3749 64.143 31.8789C64.303 32.0069 64.495 32.1349 64.783 32.3269C64.783 31.8789 64.783 31.5909 64.783 31.3029C64.783 27.2389 64.751 23.1429 64.815 19.0789C64.815 18.5669 65.071 17.9589 65.391 17.5109C66.127 16.5189 66.959 15.5909 67.791 14.6629C68.111 14.3109 68.175 14.0229 67.983 13.5429C67.471 12.2629 67.663 11.0149 68.623 9.99094C69.135 9.44694 69.903 9.12694 70.575 8.71094C71.055 8.80694 71.535 8.80694 72.015 8.80694ZM71.343 13.5429C71.983 13.5429 72.495 12.9989 72.495 12.3909C72.495 11.7189 71.951 11.1749 71.311 11.1749C70.671 11.1749 70.159 11.7189 70.127 12.3269C70.127 12.9989 70.703 13.5749 71.343 13.5429ZM20.783 12.3589C20.783 11.7189 20.271 11.2069 19.663 11.1749C18.991 11.1429 18.447 11.7189 18.447 12.3589C18.447 12.9989 19.023 13.5749 19.663 13.5429C20.271 13.5429 20.783 12.9989 20.783 12.3589ZM46.671 12.3589C46.671 11.7189 46.159 11.2069 45.519 11.2069C44.847 11.2069 44.335 11.7509 44.335 12.4229C44.335 13.0629 44.879 13.5749 45.487 13.5749C46.159 13.5749 46.671 12.9989 46.671 12.3589ZM33.391 16.3909C33.391 17.0309 33.903 17.5429 34.543 17.5429C35.215 17.5429 35.759 17.0309 35.727 16.3589C35.727 15.7509 35.183 15.2069 34.575 15.2069C33.935 15.1749 33.359 15.7189 33.391 16.3909ZM55.279 16.3589C55.279 16.9989 55.759 17.5109 56.399 17.5429C57.071 17.5749 57.615 17.0629 57.615 16.3909C57.615 15.7189 57.071 15.1749 56.431 15.1749C55.823 15.2069 55.279 15.7189 55.279 16.3589Z" fill="#00A9BB"/>
</g>
<g id="Layer_1_2">
<path id="Vector_2" d="M85.8983 61.1152C85.7703 61.6592 85.6743 62.2032 85.5463 62.7152C84.2983 67.6112 79.8823 71.1632 74.7943 71.2912C73.4503 71.3232 72.1063 71.3232 70.7623 71.2912C69.8343 71.2912 69.3863 70.8752 69.3543 70.1392C69.3543 69.3712 69.8343 68.9232 70.7943 68.9232C72.0743 68.8912 73.3863 68.9552 74.6663 68.9232C79.6263 68.7952 83.5303 64.7312 83.4983 59.7712C83.4663 53.7552 77.4823 49.4032 71.7223 51.1952C71.4983 51.2592 71.2743 51.3552 71.0503 51.4192C70.0903 51.6752 69.4823 51.1632 69.4183 50.1712C69.2903 48.2192 69.1303 46.2992 68.9703 44.3472C68.9063 43.6432 69.2583 43.0352 69.8983 42.9072C70.5383 42.7792 71.1783 43.1632 71.2743 43.8672C71.5303 45.4352 71.7543 47.0032 71.9783 48.5712C73.3223 48.5712 74.7623 48.4112 76.1703 48.6032C80.9703 49.2112 84.9383 53.1472 85.7383 57.9152C85.7703 58.1392 85.8343 58.3632 85.8983 58.5872C85.8983 59.4192 85.8983 60.2832 85.8983 61.1152Z" fill="#00A9BB"/>
</g>
<g id="Layer_1_3">
<path id="Vector_3" d="M5.10547 55.2266C5.36147 50.0426 8.11347 45.4026 13.6175 42.5226C14.5455 42.0426 15.1855 42.1707 15.5375 42.8426C15.9215 43.5146 15.6015 44.1546 14.6735 44.6666C10.1935 47.0346 7.66547 50.7466 7.53747 55.8346C7.40947 60.8906 9.71347 64.7306 14.0335 67.3226C15.8255 68.3786 17.7775 68.9226 19.8575 68.9546C20.2095 68.9546 20.5615 68.9866 20.8495 69.1146C21.3935 69.3706 21.5855 69.8826 21.4575 70.4266C21.3295 71.0026 20.8815 71.3866 20.3055 71.2906C18.6735 71.0666 16.9775 70.9706 15.4095 70.4586C9.26547 68.4746 5.10547 62.6186 5.10547 55.2266Z" fill="#00A9BB"/>
</g>
<g id="Layer_1_4">
<path id="Vector_4" d="M66.3834 67.7834V66.9834C66.3834 65.3834 65.5834 63.9434 64.3994 63.0474C65.5194 62.1514 66.2234 60.7754 66.2234 59.2714V58.4714C66.2234 55.7834 64.0474 53.6074 61.3594 53.6074H30.2234C27.5354 53.6074 25.3594 55.7834 25.3594 58.4714V59.2714C25.3594 60.8714 26.1594 62.3114 27.3434 63.2074C26.2234 64.1034 25.5194 65.4794 25.5194 66.9834V67.7834C25.5194 69.3514 26.2554 70.7594 27.4394 71.6554C26.2874 72.5514 25.5194 73.9274 25.5194 75.5274V76.3274C25.5194 79.0154 27.6954 81.1914 30.3834 81.1914H61.4874C64.1754 81.1914 66.3514 79.0154 66.3514 76.3274V75.5274C66.3514 73.9594 65.6154 72.5514 64.4314 71.6554C65.6474 70.7274 66.3834 69.3514 66.3834 67.7834ZM27.2794 59.2394V58.4394C27.2794 56.8074 28.5914 55.4954 30.2234 55.4954H61.3274C62.9594 55.4954 64.2714 56.8074 64.2714 58.4394V59.2394C64.2714 60.6474 63.3114 61.7994 61.9994 62.1194C61.8394 62.0874 61.6794 62.0874 61.4874 62.0874H30.4154C30.1594 62.0874 29.9354 62.1194 29.7114 62.1514C28.3034 61.8954 27.2794 60.7114 27.2794 59.2394ZM64.4634 75.4954V76.2954C64.4634 77.9274 63.1514 79.2394 61.5194 79.2394H30.4154C28.7834 79.2394 27.4714 77.9274 27.4714 76.2954V75.4954C27.4714 74.0874 28.4634 72.9034 29.8074 72.6154C29.9994 72.6474 30.2234 72.6474 30.4154 72.6474H61.5194C61.7434 72.6474 61.9354 72.6154 62.1274 72.6154C63.4714 72.8714 64.4634 74.0874 64.4634 75.4954ZM61.5194 70.5994H30.4154C30.1914 70.5994 29.9994 70.6314 29.8074 70.6314C28.4634 70.3434 27.4714 69.1594 27.4714 67.7514V66.9834C27.4714 65.5754 28.4314 64.4234 29.7434 64.1034C29.9034 64.1354 30.0634 64.1354 30.2554 64.1354H61.3594C61.6154 64.1354 61.8394 64.1034 62.0634 64.0714C63.4394 64.3274 64.4954 65.5434 64.4954 66.9834V67.7834C64.4954 69.1914 63.5034 70.3754 62.1594 70.6634C61.9354 70.6314 61.7434 70.5994 61.5194 70.5994Z" fill="#00A9BB"/>
</g>
<g id="Layer_1_5">
<path id="Vector_5" d="M32.5186 59.7891H59.6226C60.1666 59.7891 60.5826 59.3731 60.5826 58.8291C60.5826 58.2851 60.1666 57.8691 59.6226 57.8691H32.5186C31.9746 57.8691 31.5586 58.2851 31.5586 58.8291C31.5586 59.3411 31.9746 59.7891 32.5186 59.7891Z" fill="#00A9BB"/>
</g>
<g id="Layer_1_6">
<path id="Vector_6" d="M59.6226 74.9805H32.5186C31.9746 74.9805 31.5586 75.3965 31.5586 75.9405C31.5586 76.4845 31.9746 76.9005 32.5186 76.9005H59.6226C60.1666 76.9005 60.5826 76.4845 60.5826 75.9405C60.5826 75.3965 60.1346 74.9805 59.6226 74.9805Z" fill="#00A9BB"/>
</g>
<g id="Layer_1_7">
<path id="Vector_7" d="M59.5206 66.4102H57.6006C57.0566 66.4102 56.6406 66.8262 56.6406 67.3702C56.6406 67.9142 57.0566 68.3302 57.6006 68.3302H59.5206C60.0646 68.3302 60.4806 67.9142 60.4806 67.3702C60.4806 66.8582 60.0326 66.4102 59.5206 66.4102Z" fill="#00A9BB"/>
</g>
<g id="Layer_1_8">
<path id="Vector_8" d="M34.5402 66.4102H32.6202C32.0762 66.4102 31.6602 66.8262 31.6602 67.3702C31.6602 67.9142 32.0762 68.3302 32.6202 68.3302H34.5402C35.0842 68.3302 35.5002 67.9142 35.5002 67.3702C35.5002 66.8582 35.0522 66.4102 34.5402 66.4102Z" fill="#00A9BB"/>
</g>
<g id="Layer_1_9">
<path id="Vector_9" d="M47.7255 66.4102H44.3975C43.8535 66.4102 43.4375 66.8262 43.4375 67.3702C43.4375 67.9142 43.8535 68.3302 44.3975 68.3302H47.7255C48.2695 68.3302 48.6855 67.9142 48.6855 67.3702C48.6855 66.8582 48.2695 66.4102 47.7255 66.4102Z" fill="#00A9BB"/>
</g>
<g id="Layer_1_10">
<path id="Vector_10" d="M41.1454 66.4102H37.8174C37.2734 66.4102 36.8574 66.8262 36.8574 67.3702C36.8574 67.9142 37.2734 68.3302 37.8174 68.3302H41.1454C41.6894 68.3302 42.1054 67.9142 42.1054 67.3702C42.1054 66.8582 41.6574 66.4102 41.1454 66.4102Z" fill="#00A9BB"/>
</g>
<g id="Layer_1_11">
<path id="Vector_11" d="M54.3251 66.4102H50.9971C50.4531 66.4102 50.0371 66.8262 50.0371 67.3702C50.0371 67.9142 50.4531 68.3302 50.9971 68.3302H54.3251C54.8691 68.3302 55.2851 67.9142 55.2851 67.3702C55.2851 66.8582 54.8691 66.4102 54.3251 66.4102Z" fill="#00A9BB"/>
</g>
</g>
</g>
</g>
</g>
</g>
</svg>
