<svg width="41" height="40" viewBox="0 0 41 40" fill="none" xmlns="http://www.w3.org/2000/svg">
<g id="settings">
<path id="Vector" d="M20.8667 3.33398H20.1333C19.2493 3.33398 18.4014 3.68517 17.7763 4.31029C17.1512 4.93542 16.8 5.78326 16.8 6.66732V6.96732C16.7994 7.55186 16.6451 8.12597 16.3526 8.63205C16.06 9.13813 15.6396 9.55838 15.1333 9.85065L14.4167 10.2673C13.9099 10.5599 13.3351 10.7139 12.75 10.7139C12.1649 10.7139 11.5901 10.5599 11.0833 10.2673L10.8333 10.134C10.0684 9.69276 9.15973 9.57306 8.30667 9.80116C7.45361 10.0293 6.72592 10.5865 6.28334 11.3507L5.91667 11.984C5.47544 12.7489 5.35574 13.6576 5.58385 14.5106C5.81196 15.3637 6.36923 16.0914 7.13334 16.534L7.38334 16.7007C7.88713 16.9915 8.30604 17.4091 8.59842 17.912C8.89081 18.4149 9.04649 18.9856 9.05 19.5673V20.4173C9.05234 21.0047 8.89942 21.5822 8.60674 22.0915C8.31407 22.6008 7.89202 23.0236 7.38334 23.3173L7.13334 23.4673C6.36923 23.9099 5.81196 24.6376 5.58385 25.4907C5.35574 26.3437 5.47544 27.2524 5.91667 28.0173L6.28334 28.6507C6.72592 29.4148 7.45361 29.972 8.30667 30.2001C9.15973 30.4282 10.0684 30.3085 10.8333 29.8673L11.0833 29.734C11.5901 29.4414 12.1649 29.2874 12.75 29.2874C13.3351 29.2874 13.9099 29.4414 14.4167 29.734L15.1333 30.1507C15.6396 30.4429 16.06 30.8632 16.3526 31.3693C16.6451 31.8753 16.7994 32.4494 16.8 33.034V33.334C16.8 34.218 17.1512 35.0659 17.7763 35.691C18.4014 36.3161 19.2493 36.6673 20.1333 36.6673H20.8667C21.7507 36.6673 22.5986 36.3161 23.2237 35.691C23.8488 35.0659 24.2 34.218 24.2 33.334V33.034C24.2006 32.4494 24.3549 31.8753 24.6474 31.3693C24.94 30.8632 25.3604 30.4429 25.8667 30.1507L26.5833 29.734C27.0901 29.4414 27.6649 29.2874 28.25 29.2874C28.8351 29.2874 29.4099 29.4414 29.9167 29.734L30.1667 29.8673C30.9316 30.3085 31.8403 30.4282 32.6933 30.2001C33.5464 29.972 34.2741 29.4148 34.7167 28.6507L35.0833 28.0007C35.5246 27.2358 35.6443 26.327 35.4162 25.474C35.1881 24.6209 34.6308 23.8932 33.8667 23.4507L33.6167 23.3173C33.108 23.0236 32.6859 22.6008 32.3933 22.0915C32.1006 21.5822 31.9477 21.0047 31.95 20.4173V19.584C31.9477 18.9966 32.1006 18.4191 32.3933 17.9098C32.6859 17.4005 33.108 16.9777 33.6167 16.684L33.8667 16.534C34.6308 16.0914 35.1881 15.3637 35.4162 14.5106C35.6443 13.6576 35.5246 12.7489 35.0833 11.984L34.7167 11.3507C34.2741 10.5865 33.5464 10.0293 32.6933 9.80116C31.8403 9.57306 30.9316 9.69276 30.1667 10.134L29.9167 10.2673C29.4099 10.5599 28.8351 10.7139 28.25 10.7139C27.6649 10.7139 27.0901 10.5599 26.5833 10.2673L25.8667 9.85065C25.3604 9.55838 24.94 9.13813 24.6474 8.63205C24.3549 8.12597 24.2006 7.55186 24.2 6.96732V6.66732C24.2 5.78326 23.8488 4.93542 23.2237 4.31029C22.5986 3.68517 21.7507 3.33398 20.8667 3.33398Z" stroke="#00A9BB" stroke-linecap="round" stroke-linejoin="round"/>
<path id="Vector_2" d="M20.5 25C23.2614 25 25.5 22.7614 25.5 20C25.5 17.2386 23.2614 15 20.5 15C17.7386 15 15.5 17.2386 15.5 20C15.5 22.7614 17.7386 25 20.5 25Z" stroke="#00A9BB" stroke-linecap="round" stroke-linejoin="round"/>
</g>
</svg>
