<svg width="62" height="62" viewBox="0 0 62 62" fill="none" xmlns="http://www.w3.org/2000/svg">
<path d="M3.5 31C3.5 15.8122 15.8122 3.5 31 3.5C46.1878 3.5 58.5 15.8122 58.5 31C58.5 46.1878 46.1878 58.5 31 58.5C15.8122 58.5 3.5 46.1878 3.5 31Z" fill="#CCFBF1"/>
<path d="M3.5 31C3.5 15.8122 15.8122 3.5 31 3.5C46.1878 3.5 58.5 15.8122 58.5 31C58.5 46.1878 46.1878 58.5 31 58.5C15.8122 58.5 3.5 46.1878 3.5 31Z" stroke="#F0FDFA" stroke-width="7"/>
<path d="M32.0833 20.1667L21.25 33.1667H31L29.9167 41.8333L40.75 28.8333H31L32.0833 20.1667Z" stroke="#115E59" stroke-linecap="round" stroke-linejoin="round"/>
</svg>
