<svg xmlns="http://www.w3.org/2000/svg" width="11.515" height="12.665" viewBox="0 0 11.515 12.665">
    <path d="M308.25 781.667a1.158 1.158 0 0 0-.157-.583 1.171 1.171 0 0 0-.426-.427l-4.084-2.333a1.168 1.168 0 0 0-1.166 0l-4.084 2.333a1.171 1.171 0 0 0-.426.427 1.158 1.158 0 0 0-.157.583v4.666a1.168 1.168 0 0 0 .583 1.009l4.084 2.334a1.168 1.168 0 0 0 1.166 0l4.084-2.334a1.168 1.168 0 0 0 .583-1.009z" transform="translate(-297.242 -777.668)" style="fill:none;stroke:#8d9bb1;stroke-linecap:round;stroke-linejoin:round"/>
    <path d="M297.925 781.083 303 784l5.075-2.917M303 789.833V784" transform="translate(-297.242 -777.668)" style="fill:none;stroke:#8d9bb1;stroke-linecap:round;stroke-linejoin:round"/>
</svg>
