<svg width="14" height="15" viewBox="0 0 14 15" fill="none" xmlns="http://www.w3.org/2000/svg">
<g id="user-square-2">
<path id="Vector" d="M10.5 12.674C10.5 11.7457 10.1313 10.8555 9.47487 10.1991C8.8185 9.5427 7.92826 9.17395 7 9.17395C6.07174 9.17395 5.1815 9.5427 4.52513 10.1991C3.86875 10.8555 3.5 11.7457 3.5 12.674" stroke="white" stroke-linecap="round" stroke-linejoin="round"/>
<path id="Vector_2" d="M7.00008 9.17394C8.28875 9.17394 9.33341 8.12928 9.33341 6.84061C9.33341 5.55195 8.28875 4.50728 7.00008 4.50728C5.71142 4.50728 4.66675 5.55195 4.66675 6.84061C4.66675 8.12928 5.71142 9.17394 7.00008 9.17394Z" stroke="white" stroke-linecap="round" stroke-linejoin="round"/>
<path id="Vector_3" d="M11.0833 2.17395H2.91667C2.27233 2.17395 1.75 2.69628 1.75 3.34062V11.5073C1.75 12.1516 2.27233 12.674 2.91667 12.674H11.0833C11.7277 12.674 12.25 12.1516 12.25 11.5073V3.34062C12.25 2.69628 11.7277 2.17395 11.0833 2.17395Z" stroke="white" stroke-linecap="round" stroke-linejoin="round"/>
</g>
</svg>
