<svg width="41" height="40" viewBox="0 0 41 40" fill="none" xmlns="http://www.w3.org/2000/svg">
<g id="user-cog">
<path id="Vector" d="M30.5 30C33.2614 30 35.5 27.7614 35.5 25C35.5 22.2386 33.2614 20 30.5 20C27.7386 20 25.5 22.2386 25.5 25C25.5 27.7614 27.7386 30 30.5 30Z" stroke="#00A9BB" stroke-linecap="round" stroke-linejoin="round"/>
<path id="Vector_2" d="M15.5007 18.3333C19.1825 18.3333 22.1673 15.3486 22.1673 11.6667C22.1673 7.98477 19.1825 5 15.5007 5C11.8188 5 8.83398 7.98477 8.83398 11.6667C8.83398 15.3486 11.8188 18.3333 15.5007 18.3333Z" stroke="#00A9BB" stroke-linecap="round" stroke-linejoin="round"/>
<path id="Vector_3" d="M17.1673 25H10.5007C8.73254 25 7.03685 25.7024 5.78661 26.9526C4.53636 28.2029 3.83398 29.8986 3.83398 31.6667V35" stroke="#00A9BB" stroke-linecap="round" stroke-linejoin="round"/>
<path id="Vector_4" d="M36.666 27.334L35.166 26.834" stroke="#00A9BB" stroke-linecap="round" stroke-linejoin="round"/>
<path id="Vector_5" d="M25.834 23.166L24.334 22.666" stroke="#00A9BB" stroke-linecap="round" stroke-linejoin="round"/>
<path id="Vector_6" d="M28.166 31.166L28.666 29.666" stroke="#00A9BB" stroke-linecap="round" stroke-linejoin="round"/>
<path id="Vector_7" d="M32.334 20.334L32.834 18.834" stroke="#00A9BB" stroke-linecap="round" stroke-linejoin="round"/>
<path id="Vector_8" d="M33.1667 31.1667L32.5 29.5" stroke="#00A9BB" stroke-linecap="round" stroke-linejoin="round"/>
<path id="Vector_9" d="M28.5007 20.5007L27.834 18.834" stroke="#00A9BB" stroke-linecap="round" stroke-linejoin="round"/>
<path id="Vector_10" d="M24.334 27.6667L26.0007 27" stroke="#00A9BB" stroke-linecap="round" stroke-linejoin="round"/>
<path id="Vector_11" d="M35 23.0007L36.6667 22.334" stroke="#00A9BB" stroke-linecap="round" stroke-linejoin="round"/>
</g>
</svg>
