<svg width="48" height="48" viewBox="0 0 48 48" fill="none" xmlns="http://www.w3.org/2000/svg">
<g id="users-2">
<g id="Vector">
<path d="M28 38C28 34.8174 26.7357 31.7652 24.4853 29.5147C22.2348 27.2643 19.1826 26 16 26C12.8174 26 9.76515 27.2643 7.51472 29.5147C5.26428 31.7652 4 34.8174 4 38" fill="#025B74"/>
<path d="M28 38C28 34.8174 26.7357 31.7652 24.4853 29.5147C22.2348 27.2643 19.1826 26 16 26C12.8174 26 9.76516 27.2643 7.51472 29.5147C5.26428 31.7652 4 34.8174 4 38" stroke="black" stroke-linecap="round" stroke-linejoin="round"/>
</g>
<path id="Vector_2" d="M16 26C20.4183 26 24 22.4183 24 18C24 13.5817 20.4183 10 16 10C11.5817 10 8 13.5817 8 18C8 22.4183 11.5817 26 16 26Z" stroke="black" stroke-linecap="round" stroke-linejoin="round"/>
<path id="Vector_3" d="M44 38C44 34.8174 42.7357 31.7652 40.4853 29.5147C38.2348 27.2643 35.1826 26 32 26C34.1217 26 36.1566 25.1571 37.6569 23.6569C39.1571 22.1566 40 20.1217 40 18C40 15.8783 39.1571 13.8434 37.6569 12.3431C36.1566 10.8429 34.1217 10 32 10" stroke="black" stroke-linecap="round" stroke-linejoin="round"/>
</g>
</svg>
