<svg width="14" height="14" viewBox="0 0 14 14" fill="none" xmlns="http://www.w3.org/2000/svg">
<g id="user-cog">
<path id="Vector" d="M10.5 10.5C11.4665 10.5 12.25 9.7165 12.25 8.75C12.25 7.7835 11.4665 7 10.5 7C9.5335 7 8.75 7.7835 8.75 8.75C8.75 9.7165 9.5335 10.5 10.5 10.5Z" stroke="#1F2937" stroke-linecap="round" stroke-linejoin="round"/>
<path id="Vector_2" d="M5.24935 6.41667C6.53801 6.41667 7.58268 5.372 7.58268 4.08333C7.58268 2.79467 6.53801 1.75 5.24935 1.75C3.96068 1.75 2.91602 2.79467 2.91602 4.08333C2.91602 5.372 3.96068 6.41667 5.24935 6.41667Z" stroke="#1F2937" stroke-linecap="round" stroke-linejoin="round"/>
<path id="Vector_3" d="M5.83268 8.75H3.49935C2.88051 8.75 2.28702 8.99583 1.84943 9.43342C1.41185 9.871 1.16602 10.4645 1.16602 11.0833V12.25" stroke="black" stroke-linecap="round" stroke-linejoin="round"/>
<path id="Vector_4" d="M12.6578 9.56672L12.1328 9.39172" stroke="black" stroke-linecap="round" stroke-linejoin="round"/>
<path id="Vector_5" d="M8.8668 8.10835L8.3418 7.93335" stroke="black" stroke-linecap="round" stroke-linejoin="round"/>
<path id="Vector_6" d="M9.68359 10.9083L9.85859 10.3833" stroke="black" stroke-linecap="round" stroke-linejoin="round"/>
<path id="Vector_7" d="M11.1426 7.11667L11.3176 6.59167" stroke="black" stroke-linecap="round" stroke-linejoin="round"/>
<path id="Vector_8" d="M11.4326 10.9083L11.1992 10.325" stroke="black" stroke-linecap="round" stroke-linejoin="round"/>
<path id="Vector_9" d="M9.79974 7.17501L9.56641 6.59167" stroke="black" stroke-linecap="round" stroke-linejoin="round"/>
<path id="Vector_10" d="M8.3418 9.68328L8.92513 9.44995" stroke="black" stroke-linecap="round" stroke-linejoin="round"/>
<path id="Vector_11" d="M12.0742 8.04998L12.6576 7.81665" stroke="black" stroke-linecap="round" stroke-linejoin="round"/>
</g>
</svg>
