<svg width="14" height="15" viewBox="0 0 14 15" fill="none" xmlns="http://www.w3.org/2000/svg">
<g id="user-plus">
<path id="Vector" d="M9.33341 12.674V11.5073C9.33341 10.8884 9.08758 10.295 8.65 9.85737C8.21241 9.41978 7.61892 9.17395 7.00008 9.17395H3.50008C2.88124 9.17395 2.28775 9.41978 1.85017 9.85737C1.41258 10.295 1.16675 10.8884 1.16675 11.5073V12.674" stroke="white" stroke-linecap="round" stroke-linejoin="round"/>
<path id="Vector_2" d="M5.25008 6.84062C6.53875 6.84062 7.58342 5.79595 7.58342 4.50728C7.58342 3.21862 6.53875 2.17395 5.25008 2.17395C3.96142 2.17395 2.91675 3.21862 2.91675 4.50728C2.91675 5.79595 3.96142 6.84062 5.25008 6.84062Z" stroke="white" stroke-linecap="round" stroke-linejoin="round"/>
<path id="Vector_3" d="M11.0833 5.09061V8.59061" stroke="white" stroke-linecap="round" stroke-linejoin="round"/>
<path id="Vector_4" d="M12.8333 6.84061H9.33325" stroke="white" stroke-linecap="round" stroke-linejoin="round"/>
</g>
</svg>
