<svg width="17" height="17" viewBox="0 0 17 17" fill="none" xmlns="http://www.w3.org/2000/svg">
<g id="view">
<path id="Vector" d="M3.73962 8.42395C3.73962 8.42395 5.43629 5.09062 8.40629 5.09062C11.3756 5.09062 13.073 8.42395 13.073 8.42395C13.073 8.42395 11.3756 11.7573 8.40629 11.7573C5.43629 11.7573 3.73962 8.42395 3.73962 8.42395Z" stroke="#1F2937" stroke-linecap="round" stroke-linejoin="round"/>
<path id="Vector_2" d="M8.40629 9.09062C8.5831 9.09062 8.75267 9.02038 8.8777 8.89536C9.00272 8.77033 9.07296 8.60076 9.07296 8.42395C9.07296 8.24714 9.00272 8.07757 8.8777 7.95255C8.75267 7.82752 8.5831 7.75728 8.40629 7.75728C8.22948 7.75728 8.05991 7.82752 7.93489 7.95255C7.80986 8.07757 7.73962 8.24714 7.73962 8.42395C7.73962 8.60076 7.80986 8.77033 7.93489 8.89536C8.05991 9.02038 8.22948 9.09062 8.40629 9.09062Z" stroke="#1F2937" stroke-linecap="round" stroke-linejoin="round"/>
<path id="Vector_3" d="M14.4063 11.7573V13.0906C14.4063 13.4442 14.2658 13.7834 14.0157 14.0334C13.7657 14.2835 13.4265 14.4239 13.0729 14.4239H3.73958C3.38596 14.4239 3.04682 14.2835 2.79677 14.0334C2.54673 13.7834 2.40625 13.4442 2.40625 13.0906V11.7573" stroke="black" stroke-linecap="round" stroke-linejoin="round"/>
<path id="Vector_4" d="M14.4063 5.09062V3.75728C14.4063 3.40366 14.2658 3.06452 14.0157 2.81447C13.7657 2.56443 13.4265 2.42395 13.0729 2.42395H3.73958C3.38596 2.42395 3.04682 2.56443 2.79677 2.81447C2.54673 3.06452 2.40625 3.40366 2.40625 3.75728V5.09062" stroke="black" stroke-linecap="round" stroke-linejoin="round"/>
</g>
</svg>
