<svg width="141" height="56" viewBox="0 0 141 56" fill="none" xmlns="http://www.w3.org/2000/svg">
<g id="Logo=2, Color=Dark">
<g id="Logo">
<path fill-rule="evenodd" clip-rule="evenodd" d="M39.0722 16.75L27.5627 39.25H16.752L21.5687 29.925H21.3526C17.3788 35.0835 11.4498 38.4794 3.00195 39.25V30.0541C3.00195 30.0541 8.40627 29.7349 11.5833 26.3947H3.00195V16.7502H12.6465V24.6826L12.8629 24.6818L16.8041 16.7502H24.098V24.6323L24.3143 24.632L28.4033 16.75H39.0722ZM101.835 36.7665H104.941V18.9375H101.835V36.7665ZM84.7111 36.5844C85.3861 36.8651 86.0726 37.0054 86.7705 37.0054C87.9234 37.0054 88.955 36.7248 89.8653 36.1634C90.7754 35.6022 91.4809 34.8286 91.9815 33.8424C92.4821 32.8488 92.7324 31.7223 92.7324 30.4632C92.7324 29.2041 92.4745 28.0777 91.9588 27.084C91.4429 26.0904 90.7261 25.3205 89.8083 24.7744C88.8905 24.2206 87.8475 23.9476 86.6794 23.9552C85.9361 23.9552 85.2231 24.0993 84.5404 24.3875C83.8578 24.6758 83.2889 25.0854 82.8338 25.6163C82.7986 25.6567 82.7645 25.6976 82.7314 25.7388V18.9489H79.6139V36.7666H82.7086L82.7024 35.1021C82.7824 35.2002 82.868 35.2961 82.9589 35.3898C83.4519 35.8981 84.036 36.2962 84.7111 36.5844ZM87.8969 33.7059C87.3886 34.0169 86.8084 34.1724 86.156 34.1724C85.5113 34.1724 84.9196 34.0131 84.3811 33.6946C83.8425 33.3683 83.414 32.9247 83.0954 32.3633C82.7844 31.8021 82.6289 31.1648 82.6289 30.4518C82.6214 29.7388 82.773 29.1017 83.084 28.5404C83.4026 27.9715 83.8311 27.5316 84.3698 27.2206C84.9083 26.902 85.5038 26.7465 86.156 26.7541C86.8084 26.7465 87.3886 26.8982 87.8969 27.2092C88.4126 27.5126 88.807 27.9488 89.0801 28.5176C89.3608 29.0789 89.5011 29.7237 89.5011 30.4518C89.5011 31.1801 89.3608 31.8248 89.0801 32.3861C88.807 32.9474 88.4126 33.3873 87.8969 33.7059ZM43.572 20.0184H47.1219L50.2974 31.6154L53.6755 20.0184H56.6338L60.2974 31.3827L63.3466 20.0184H66.6006L61.7993 36.7665H58.7386L55.0131 25.6645L51.5934 36.7665H48.4986L43.572 20.0184ZM71.8432 37.0623C70.6067 37.0699 69.4917 36.7968 68.4981 36.2431C67.512 35.6818 66.7346 34.9043 66.1656 33.9106C65.6044 32.917 65.3237 31.783 65.3237 30.5086C65.3237 29.2723 65.612 28.1535 66.1885 27.1523C66.7649 26.151 67.5461 25.3697 68.5322 24.8084C69.5183 24.2471 70.6181 23.9665 71.8317 23.9665C73.1971 23.9665 74.3917 24.2699 75.4157 24.8767C76.4474 25.4835 77.2172 26.3444 77.7255 27.4595C78.2412 28.5669 78.4271 29.8374 78.283 31.271H68.5371C68.5644 31.8421 68.7069 32.3618 68.9646 32.8298C69.2529 33.3455 69.6549 33.7475 70.1706 34.0358C70.6865 34.324 71.2629 34.4681 71.9001 34.4681C72.3855 34.4605 72.8369 34.3771 73.254 34.2179C73.6712 34.051 74.0238 33.8273 74.3121 33.5465C74.608 33.2659 74.8166 32.9474 74.938 32.5909H78.192C77.9947 33.4631 77.6003 34.2406 77.0087 34.9233C76.417 35.5984 75.6737 36.1255 74.7786 36.5048C73.8836 36.884 72.9051 37.0699 71.8432 37.0623ZM68.976 28.1421C68.7942 28.4591 68.6682 28.8004 68.5981 29.1661H75.0585C75.0116 28.7041 74.869 28.2832 74.6307 27.9032C74.3576 27.4557 73.986 27.1105 73.5157 26.8678C73.0455 26.6175 72.5145 26.4924 71.9229 26.4924C71.2932 26.4924 70.7206 26.6365 70.2047 26.9247C69.689 27.2129 69.2794 27.6188 68.976 28.1421ZM95.0197 24.2282C95.0197 23.2118 95.251 22.3092 95.7137 21.5203C96.1763 20.7239 96.825 20.1057 97.6593 19.6657C98.5012 19.2182 99.4836 18.9868 100.606 18.9717V21.7365C100.083 21.7441 99.6352 21.854 99.2636 22.0664C98.8995 22.2712 98.6188 22.5708 98.4216 22.9653C98.2401 23.3284 98.1421 23.7494 98.1277 24.2282H100.538V26.8565H98.1258V36.7665H95.0197V26.8565H93.0172V24.2282H95.0197ZM112.837 37.0395C111.57 37.0395 110.436 36.7626 109.435 36.209C108.441 35.6476 107.66 34.874 107.091 33.8878C106.53 32.8942 106.249 31.7678 106.249 30.5086C106.249 29.242 106.53 28.1117 107.091 27.1181C107.66 26.1168 108.441 25.3393 109.435 24.7856C110.436 24.2319 111.57 23.955 112.837 23.955C114.111 23.955 115.249 24.2319 116.25 24.7856C117.259 25.3393 118.044 26.113 118.605 27.1067C119.167 28.1003 119.451 29.2343 119.459 30.5086C119.451 31.7678 119.167 32.8942 118.605 33.8878C118.052 34.874 117.27 35.6476 116.261 36.209C115.253 36.7626 114.111 37.0395 112.837 37.0395ZM112.837 34.1837C113.504 34.1837 114.096 34.032 114.612 33.7286C115.128 33.4176 115.526 32.9852 115.806 32.4315C116.087 31.8702 116.227 31.2292 116.227 30.5086C116.227 29.7805 116.087 29.1357 115.806 28.5744C115.526 28.0131 115.128 27.5808 114.612 27.2774C114.096 26.9664 113.504 26.8109 112.837 26.8109C112.177 26.8109 111.589 26.9664 111.073 27.2774C110.565 27.5808 110.171 28.0131 109.89 28.5744C109.609 29.1357 109.473 29.7805 109.48 30.5086C109.48 31.2292 109.621 31.8702 109.901 32.4315C110.19 32.9852 110.584 33.4176 111.085 33.7286C111.593 34.032 112.177 34.1837 112.837 34.1837ZM122.815 24.2282H119.356L123.1 36.7665H126.126L128.588 28.7583L131.246 36.7665H134.227L137.982 24.2282H134.853L132.723 32.0325L130.369 24.2282H127.343L125.001 32.2044L122.815 24.2282Z" fill="#B0E4EA"/>
<path d="M39.0722 16.75L27.5627 39.25H16.752L21.5687 29.925H21.3526C17.3788 35.0835 11.4498 38.4794 3.00195 39.25V30.0541C3.00195 30.0541 8.40627 29.7349 11.5833 26.3947H3.00195V16.7502H12.6465V24.6826L12.8629 24.6818L16.8041 16.7502H24.098V24.6323L24.3143 24.632L28.4033 16.75H39.0722ZM101.835 36.7665H104.941V18.9375H101.835V36.7665ZM84.7111 36.5844C85.3861 36.8651 86.0726 37.0054 86.7705 37.0054C87.9234 37.0054 88.955 36.7248 89.8653 36.1634C90.7754 35.6022 91.4809 34.8286 91.9815 33.8424C92.4821 32.8488 92.7324 31.7223 92.7324 30.4632C92.7324 29.2041 92.4745 28.0777 91.9588 27.084C91.4429 26.0904 90.7261 25.3205 89.8083 24.7744C88.8905 24.2206 87.8475 23.9476 86.6794 23.9552C85.9361 23.9552 85.2231 24.0993 84.5404 24.3875C83.8578 24.6758 83.2889 25.0854 82.8338 25.6163C82.7986 25.6567 82.7645 25.6976 82.7314 25.7388V18.9489H79.6139V36.7666H82.7086L82.7024 35.1021C82.7824 35.2002 82.868 35.2961 82.9589 35.3898C83.4519 35.8981 84.036 36.2962 84.7111 36.5844ZM87.8969 33.7059C87.3886 34.0169 86.8084 34.1724 86.156 34.1724C85.5113 34.1724 84.9196 34.0131 84.3811 33.6946C83.8425 33.3683 83.414 32.9247 83.0954 32.3633C82.7844 31.8021 82.6289 31.1648 82.6289 30.4518C82.6214 29.7388 82.773 29.1017 83.084 28.5404C83.4026 27.9715 83.8311 27.5316 84.3698 27.2206C84.9083 26.902 85.5038 26.7465 86.156 26.7541C86.8084 26.7465 87.3886 26.8982 87.8969 27.2092C88.4126 27.5126 88.807 27.9488 89.0801 28.5176C89.3608 29.0789 89.5011 29.7237 89.5011 30.4518C89.5011 31.1801 89.3608 31.8248 89.0801 32.3861C88.807 32.9474 88.4126 33.3873 87.8969 33.7059ZM43.572 20.0184H47.1219L50.2974 31.6154L53.6755 20.0184H56.6338L60.2974 31.3827L63.3466 20.0184H66.6006L61.7993 36.7665H58.7386L55.0131 25.6645L51.5934 36.7665H48.4986L43.572 20.0184ZM71.8432 37.0623C70.6067 37.0699 69.4917 36.7968 68.4981 36.2431C67.512 35.6818 66.7346 34.9043 66.1656 33.9106C65.6044 32.917 65.3237 31.783 65.3237 30.5086C65.3237 29.2723 65.612 28.1535 66.1885 27.1523C66.7649 26.151 67.5461 25.3697 68.5322 24.8084C69.5183 24.2471 70.6181 23.9665 71.8317 23.9665C73.1971 23.9665 74.3917 24.2699 75.4157 24.8767C76.4474 25.4835 77.2172 26.3444 77.7255 27.4595C78.2412 28.5669 78.4271 29.8374 78.283 31.271H68.5371C68.5644 31.8421 68.7069 32.3618 68.9646 32.8298C69.2529 33.3455 69.6549 33.7475 70.1706 34.0358C70.6865 34.324 71.2629 34.4681 71.9001 34.4681C72.3855 34.4605 72.8369 34.3771 73.254 34.2179C73.6712 34.051 74.0238 33.8273 74.3121 33.5465C74.608 33.2659 74.8166 32.9474 74.938 32.5909H78.192C77.9947 33.4631 77.6003 34.2406 77.0087 34.9233C76.417 35.5984 75.6737 36.1255 74.7786 36.5048C73.8836 36.884 72.9051 37.0699 71.8432 37.0623ZM68.976 28.1421C68.7942 28.4591 68.6682 28.8004 68.5981 29.1661H75.0585C75.0116 28.7041 74.869 28.2832 74.6307 27.9032C74.3576 27.4557 73.986 27.1105 73.5157 26.8678C73.0455 26.6175 72.5145 26.4924 71.9229 26.4924C71.2932 26.4924 70.7206 26.6365 70.2047 26.9247C69.689 27.2129 69.2794 27.6188 68.976 28.1421ZM95.0197 24.2282C95.0197 23.2118 95.251 22.3092 95.7137 21.5203C96.1763 20.7239 96.825 20.1057 97.6593 19.6657C98.5012 19.2182 99.4836 18.9868 100.606 18.9717V21.7365C100.083 21.7441 99.6352 21.854 99.2636 22.0664C98.8995 22.2712 98.6188 22.5708 98.4216 22.9653C98.2401 23.3284 98.1421 23.7494 98.1277 24.2282H100.538V26.8565H98.1258V36.7665H95.0197V26.8565H93.0172V24.2282H95.0197ZM112.837 37.0395C111.57 37.0395 110.436 36.7626 109.435 36.209C108.441 35.6476 107.66 34.874 107.091 33.8878C106.53 32.8942 106.249 31.7678 106.249 30.5086C106.249 29.242 106.53 28.1117 107.091 27.1181C107.66 26.1168 108.441 25.3393 109.435 24.7856C110.436 24.2319 111.57 23.955 112.837 23.955C114.111 23.955 115.249 24.2319 116.25 24.7856C117.259 25.3393 118.044 26.113 118.605 27.1067C119.167 28.1003 119.451 29.2343 119.459 30.5086C119.451 31.7678 119.167 32.8942 118.605 33.8878C118.052 34.874 117.27 35.6476 116.261 36.209C115.253 36.7626 114.111 37.0395 112.837 37.0395ZM112.837 34.1837C113.504 34.1837 114.096 34.032 114.612 33.7286C115.128 33.4176 115.526 32.9852 115.806 32.4315C116.087 31.8702 116.227 31.2292 116.227 30.5086C116.227 29.7805 116.087 29.1357 115.806 28.5744C115.526 28.0131 115.128 27.5808 114.612 27.2774C114.096 26.9664 113.504 26.8109 112.837 26.8109C112.177 26.8109 111.589 26.9664 111.073 27.2774C110.565 27.5808 110.171 28.0131 109.89 28.5744C109.609 29.1357 109.473 29.7805 109.48 30.5086C109.48 31.2292 109.621 31.8702 109.901 32.4315C110.19 32.9852 110.584 33.4176 111.085 33.7286C111.593 34.032 112.177 34.1837 112.837 34.1837ZM122.815 24.2282H119.356L123.1 36.7665H126.126L128.588 28.7583L131.246 36.7665H134.227L137.982 24.2282H134.853L132.723 32.0325L130.369 24.2282H127.343L125.001 32.2044L122.815 24.2282Z" fill="#B0E4EA"/>
<path fill-rule="evenodd" clip-rule="evenodd" d="M39.0722 16.75L27.5627 39.25H16.752L21.5687 29.925H21.3526C17.3788 35.0835 11.4498 38.4794 3.00195 39.25V30.0541C3.00195 30.0541 8.40627 29.7349 11.5833 26.3947H3.00195V16.7502H12.6465V24.6826L12.8629 24.6818L16.8041 16.7502H24.098V24.6323L24.3143 24.632L28.4033 16.75H39.0722ZM101.835 36.7665H104.941V18.9375H101.835V36.7665ZM84.7111 36.5844C85.3861 36.8651 86.0726 37.0054 86.7705 37.0054C87.9234 37.0054 88.955 36.7248 89.8653 36.1634C90.7754 35.6022 91.4809 34.8286 91.9815 33.8424C92.4821 32.8488 92.7324 31.7223 92.7324 30.4632C92.7324 29.2041 92.4745 28.0777 91.9588 27.084C91.4429 26.0904 90.7261 25.3205 89.8083 24.7744C88.8905 24.2206 87.8475 23.9476 86.6794 23.9552C85.9361 23.9552 85.2231 24.0993 84.5404 24.3875C83.8578 24.6758 83.2889 25.0854 82.8338 25.6163C82.7986 25.6567 82.7645 25.6976 82.7314 25.7388V18.9489H79.6139V36.7666H82.7086L82.7024 35.1021C82.7824 35.2002 82.868 35.2961 82.9589 35.3898C83.4519 35.8981 84.036 36.2962 84.7111 36.5844ZM87.8969 33.7059C87.3886 34.0169 86.8084 34.1724 86.156 34.1724C85.5113 34.1724 84.9196 34.0131 84.3811 33.6946C83.8425 33.3683 83.414 32.9247 83.0954 32.3633C82.7844 31.8021 82.6289 31.1648 82.6289 30.4518C82.6214 29.7388 82.773 29.1017 83.084 28.5404C83.4026 27.9715 83.8311 27.5316 84.3698 27.2206C84.9083 26.902 85.5038 26.7465 86.156 26.7541C86.8084 26.7465 87.3886 26.8982 87.8969 27.2092C88.4126 27.5126 88.807 27.9488 89.0801 28.5176C89.3608 29.0789 89.5011 29.7237 89.5011 30.4518C89.5011 31.1801 89.3608 31.8248 89.0801 32.3861C88.807 32.9474 88.4126 33.3873 87.8969 33.7059ZM43.572 20.0184H47.1219L50.2974 31.6154L53.6755 20.0184H56.6338L60.2974 31.3827L63.3466 20.0184H66.6006L61.7993 36.7665H58.7386L55.0131 25.6645L51.5934 36.7665H48.4986L43.572 20.0184ZM71.8432 37.0623C70.6067 37.0699 69.4917 36.7968 68.4981 36.2431C67.512 35.6818 66.7346 34.9043 66.1656 33.9106C65.6044 32.917 65.3237 31.783 65.3237 30.5086C65.3237 29.2723 65.612 28.1535 66.1885 27.1523C66.7649 26.151 67.5461 25.3697 68.5322 24.8084C69.5183 24.2471 70.6181 23.9665 71.8317 23.9665C73.1971 23.9665 74.3917 24.2699 75.4157 24.8767C76.4474 25.4835 77.2172 26.3444 77.7255 27.4595C78.2412 28.5669 78.4271 29.8374 78.283 31.271H68.5371C68.5644 31.8421 68.7069 32.3618 68.9646 32.8298C69.2529 33.3455 69.6549 33.7475 70.1706 34.0358C70.6865 34.324 71.2629 34.4681 71.9001 34.4681C72.3855 34.4605 72.8369 34.3771 73.254 34.2179C73.6712 34.051 74.0238 33.8273 74.3121 33.5465C74.608 33.2659 74.8166 32.9474 74.938 32.5909H78.192C77.9947 33.4631 77.6003 34.2406 77.0087 34.9233C76.417 35.5984 75.6737 36.1255 74.7786 36.5048C73.8836 36.884 72.9051 37.0699 71.8432 37.0623ZM68.976 28.1421C68.7942 28.4591 68.6682 28.8004 68.5981 29.1661H75.0585C75.0116 28.7041 74.869 28.2832 74.6307 27.9032C74.3576 27.4557 73.986 27.1105 73.5157 26.8678C73.0455 26.6175 72.5145 26.4924 71.9229 26.4924C71.2932 26.4924 70.7206 26.6365 70.2047 26.9247C69.689 27.2129 69.2794 27.6188 68.976 28.1421ZM95.0197 24.2282C95.0197 23.2118 95.251 22.3092 95.7137 21.5203C96.1763 20.7239 96.825 20.1057 97.6593 19.6657C98.5012 19.2182 99.4836 18.9868 100.606 18.9717V21.7365C100.083 21.7441 99.6352 21.854 99.2636 22.0664C98.8995 22.2712 98.6188 22.5708 98.4216 22.9653C98.2401 23.3284 98.1421 23.7494 98.1277 24.2282H100.538V26.8565H98.1258V36.7665H95.0197V26.8565H93.0172V24.2282H95.0197ZM112.837 37.0395C111.57 37.0395 110.436 36.7626 109.435 36.209C108.441 35.6476 107.66 34.874 107.091 33.8878C106.53 32.8942 106.249 31.7678 106.249 30.5086C106.249 29.242 106.53 28.1117 107.091 27.1181C107.66 26.1168 108.441 25.3393 109.435 24.7856C110.436 24.2319 111.57 23.955 112.837 23.955C114.111 23.955 115.249 24.2319 116.25 24.7856C117.259 25.3393 118.044 26.113 118.605 27.1067C119.167 28.1003 119.451 29.2343 119.459 30.5086C119.451 31.7678 119.167 32.8942 118.605 33.8878C118.052 34.874 117.27 35.6476 116.261 36.209C115.253 36.7626 114.111 37.0395 112.837 37.0395ZM112.837 34.1837C113.504 34.1837 114.096 34.032 114.612 33.7286C115.128 33.4176 115.526 32.9852 115.806 32.4315C116.087 31.8702 116.227 31.2292 116.227 30.5086C116.227 29.7805 116.087 29.1357 115.806 28.5744C115.526 28.0131 115.128 27.5808 114.612 27.2774C114.096 26.9664 113.504 26.8109 112.837 26.8109C112.177 26.8109 111.589 26.9664 111.073 27.2774C110.565 27.5808 110.171 28.0131 109.89 28.5744C109.609 29.1357 109.473 29.7805 109.48 30.5086C109.48 31.2292 109.621 31.8702 109.901 32.4315C110.19 32.9852 110.584 33.4176 111.085 33.7286C111.593 34.032 112.177 34.1837 112.837 34.1837ZM122.815 24.2282H119.356L123.1 36.7665H126.126L128.588 28.7583L131.246 36.7665H134.227L137.982 24.2282H134.853L132.723 32.0325L130.369 24.2282H127.343L125.001 32.2044L122.815 24.2282Z" fill="#B0E4EA"/>
<path d="M39.0722 16.75L27.5627 39.25H16.752L21.5687 29.925H21.3526C17.3788 35.0835 11.4498 38.4794 3.00195 39.25V30.0541C3.00195 30.0541 8.40627 29.7349 11.5833 26.3947H3.00195V16.7502H12.6465V24.6826L12.8629 24.6818L16.8041 16.7502H24.098V24.6323L24.3143 24.632L28.4033 16.75H39.0722ZM101.835 36.7665H104.941V18.9375H101.835V36.7665ZM84.7111 36.5844C85.3861 36.8651 86.0726 37.0054 86.7705 37.0054C87.9234 37.0054 88.955 36.7248 89.8653 36.1634C90.7754 35.6022 91.4809 34.8286 91.9815 33.8424C92.4821 32.8488 92.7324 31.7223 92.7324 30.4632C92.7324 29.2041 92.4745 28.0777 91.9588 27.084C91.4429 26.0904 90.7261 25.3205 89.8083 24.7744C88.8905 24.2206 87.8475 23.9476 86.6794 23.9552C85.9361 23.9552 85.2231 24.0993 84.5404 24.3875C83.8578 24.6758 83.2889 25.0854 82.8338 25.6163C82.7986 25.6567 82.7645 25.6976 82.7314 25.7388V18.9489H79.6139V36.7666H82.7086L82.7024 35.1021C82.7824 35.2002 82.868 35.2961 82.9589 35.3898C83.4519 35.8981 84.036 36.2962 84.7111 36.5844ZM87.8969 33.7059C87.3886 34.0169 86.8084 34.1724 86.156 34.1724C85.5113 34.1724 84.9196 34.0131 84.3811 33.6946C83.8425 33.3683 83.414 32.9247 83.0954 32.3633C82.7844 31.8021 82.6289 31.1648 82.6289 30.4518C82.6214 29.7388 82.773 29.1017 83.084 28.5404C83.4026 27.9715 83.8311 27.5316 84.3698 27.2206C84.9083 26.902 85.5038 26.7465 86.156 26.7541C86.8084 26.7465 87.3886 26.8982 87.8969 27.2092C88.4126 27.5126 88.807 27.9488 89.0801 28.5176C89.3608 29.0789 89.5011 29.7237 89.5011 30.4518C89.5011 31.1801 89.3608 31.8248 89.0801 32.3861C88.807 32.9474 88.4126 33.3873 87.8969 33.7059ZM43.572 20.0184H47.1219L50.2974 31.6154L53.6755 20.0184H56.6338L60.2974 31.3827L63.3466 20.0184H66.6006L61.7993 36.7665H58.7386L55.0131 25.6645L51.5934 36.7665H48.4986L43.572 20.0184ZM71.8432 37.0623C70.6067 37.0699 69.4917 36.7968 68.4981 36.2431C67.512 35.6818 66.7346 34.9043 66.1656 33.9106C65.6044 32.917 65.3237 31.783 65.3237 30.5086C65.3237 29.2723 65.612 28.1535 66.1885 27.1523C66.7649 26.151 67.5461 25.3697 68.5322 24.8084C69.5183 24.2471 70.6181 23.9665 71.8317 23.9665C73.1971 23.9665 74.3917 24.2699 75.4157 24.8767C76.4474 25.4835 77.2172 26.3444 77.7255 27.4595C78.2412 28.5669 78.4271 29.8374 78.283 31.271H68.5371C68.5644 31.8421 68.7069 32.3618 68.9646 32.8298C69.2529 33.3455 69.6549 33.7475 70.1706 34.0358C70.6865 34.324 71.2629 34.4681 71.9001 34.4681C72.3855 34.4605 72.8369 34.3771 73.254 34.2179C73.6712 34.051 74.0238 33.8273 74.3121 33.5465C74.608 33.2659 74.8166 32.9474 74.938 32.5909H78.192C77.9947 33.4631 77.6003 34.2406 77.0087 34.9233C76.417 35.5984 75.6737 36.1255 74.7786 36.5048C73.8836 36.884 72.9051 37.0699 71.8432 37.0623ZM68.976 28.1421C68.7942 28.4591 68.6682 28.8004 68.5981 29.1661H75.0585C75.0116 28.7041 74.869 28.2832 74.6307 27.9032C74.3576 27.4557 73.986 27.1105 73.5157 26.8678C73.0455 26.6175 72.5145 26.4924 71.9229 26.4924C71.2932 26.4924 70.7206 26.6365 70.2047 26.9247C69.689 27.2129 69.2794 27.6188 68.976 28.1421ZM95.0197 24.2282C95.0197 23.2118 95.251 22.3092 95.7137 21.5203C96.1763 20.7239 96.825 20.1057 97.6593 19.6657C98.5012 19.2182 99.4836 18.9868 100.606 18.9717V21.7365C100.083 21.7441 99.6352 21.854 99.2636 22.0664C98.8995 22.2712 98.6188 22.5708 98.4216 22.9653C98.2401 23.3284 98.1421 23.7494 98.1277 24.2282H100.538V26.8565H98.1258V36.7665H95.0197V26.8565H93.0172V24.2282H95.0197ZM112.837 37.0395C111.57 37.0395 110.436 36.7626 109.435 36.209C108.441 35.6476 107.66 34.874 107.091 33.8878C106.53 32.8942 106.249 31.7678 106.249 30.5086C106.249 29.242 106.53 28.1117 107.091 27.1181C107.66 26.1168 108.441 25.3393 109.435 24.7856C110.436 24.2319 111.57 23.955 112.837 23.955C114.111 23.955 115.249 24.2319 116.25 24.7856C117.259 25.3393 118.044 26.113 118.605 27.1067C119.167 28.1003 119.451 29.2343 119.459 30.5086C119.451 31.7678 119.167 32.8942 118.605 33.8878C118.052 34.874 117.27 35.6476 116.261 36.209C115.253 36.7626 114.111 37.0395 112.837 37.0395ZM112.837 34.1837C113.504 34.1837 114.096 34.032 114.612 33.7286C115.128 33.4176 115.526 32.9852 115.806 32.4315C116.087 31.8702 116.227 31.2292 116.227 30.5086C116.227 29.7805 116.087 29.1357 115.806 28.5744C115.526 28.0131 115.128 27.5808 114.612 27.2774C114.096 26.9664 113.504 26.8109 112.837 26.8109C112.177 26.8109 111.589 26.9664 111.073 27.2774C110.565 27.5808 110.171 28.0131 109.89 28.5744C109.609 29.1357 109.473 29.7805 109.48 30.5086C109.48 31.2292 109.621 31.8702 109.901 32.4315C110.19 32.9852 110.584 33.4176 111.085 33.7286C111.593 34.032 112.177 34.1837 112.837 34.1837ZM122.815 24.2282H119.356L123.1 36.7665H126.126L128.588 28.7583L131.246 36.7665H134.227L137.982 24.2282H134.853L132.723 32.0325L130.369 24.2282H127.343L125.001 32.2044L122.815 24.2282Z" fill="#B0E4EA"/>
<path fill-rule="evenodd" clip-rule="evenodd" d="M39.0722 16.75L27.5627 39.25H16.752L21.5687 29.925H21.3526C17.3788 35.0835 11.4498 38.4794 3.00195 39.25V30.0541C3.00195 30.0541 8.40627 29.7349 11.5833 26.3947H3.00195V16.7502H12.6465V24.6826L12.8629 24.6818L16.8041 16.7502H24.098V24.6323L24.3143 24.632L28.4033 16.75H39.0722ZM101.835 36.7665H104.941V18.9375H101.835V36.7665ZM84.7111 36.5844C85.3861 36.8651 86.0726 37.0054 86.7705 37.0054C87.9234 37.0054 88.955 36.7248 89.8653 36.1634C90.7754 35.6022 91.4809 34.8286 91.9815 33.8424C92.4821 32.8488 92.7324 31.7223 92.7324 30.4632C92.7324 29.2041 92.4745 28.0777 91.9588 27.084C91.4429 26.0904 90.7261 25.3205 89.8083 24.7744C88.8905 24.2206 87.8475 23.9476 86.6794 23.9552C85.9361 23.9552 85.2231 24.0993 84.5404 24.3875C83.8578 24.6758 83.2889 25.0854 82.8338 25.6163C82.7986 25.6567 82.7645 25.6976 82.7314 25.7388V18.9489H79.6139V36.7666H82.7086L82.7024 35.1021C82.7824 35.2002 82.868 35.2961 82.9589 35.3898C83.4519 35.8981 84.036 36.2962 84.7111 36.5844ZM87.8969 33.7059C87.3886 34.0169 86.8084 34.1724 86.156 34.1724C85.5113 34.1724 84.9196 34.0131 84.3811 33.6946C83.8425 33.3683 83.414 32.9247 83.0954 32.3633C82.7844 31.8021 82.6289 31.1648 82.6289 30.4518C82.6214 29.7388 82.773 29.1017 83.084 28.5404C83.4026 27.9715 83.8311 27.5316 84.3698 27.2206C84.9083 26.902 85.5038 26.7465 86.156 26.7541C86.8084 26.7465 87.3886 26.8982 87.8969 27.2092C88.4126 27.5126 88.807 27.9488 89.0801 28.5176C89.3608 29.0789 89.5011 29.7237 89.5011 30.4518C89.5011 31.1801 89.3608 31.8248 89.0801 32.3861C88.807 32.9474 88.4126 33.3873 87.8969 33.7059ZM43.572 20.0184H47.1219L50.2974 31.6154L53.6755 20.0184H56.6338L60.2974 31.3827L63.3466 20.0184H66.6006L61.7993 36.7665H58.7386L55.0131 25.6645L51.5934 36.7665H48.4986L43.572 20.0184ZM71.8432 37.0623C70.6067 37.0699 69.4917 36.7968 68.4981 36.2431C67.512 35.6818 66.7346 34.9043 66.1656 33.9106C65.6044 32.917 65.3237 31.783 65.3237 30.5086C65.3237 29.2723 65.612 28.1535 66.1885 27.1523C66.7649 26.151 67.5461 25.3697 68.5322 24.8084C69.5183 24.2471 70.6181 23.9665 71.8317 23.9665C73.1971 23.9665 74.3917 24.2699 75.4157 24.8767C76.4474 25.4835 77.2172 26.3444 77.7255 27.4595C78.2412 28.5669 78.4271 29.8374 78.283 31.271H68.5371C68.5644 31.8421 68.7069 32.3618 68.9646 32.8298C69.2529 33.3455 69.6549 33.7475 70.1706 34.0358C70.6865 34.324 71.2629 34.4681 71.9001 34.4681C72.3855 34.4605 72.8369 34.3771 73.254 34.2179C73.6712 34.051 74.0238 33.8273 74.3121 33.5465C74.608 33.2659 74.8166 32.9474 74.938 32.5909H78.192C77.9947 33.4631 77.6003 34.2406 77.0087 34.9233C76.417 35.5984 75.6737 36.1255 74.7786 36.5048C73.8836 36.884 72.9051 37.0699 71.8432 37.0623ZM68.976 28.1421C68.7942 28.4591 68.6682 28.8004 68.5981 29.1661H75.0585C75.0116 28.7041 74.869 28.2832 74.6307 27.9032C74.3576 27.4557 73.986 27.1105 73.5157 26.8678C73.0455 26.6175 72.5145 26.4924 71.9229 26.4924C71.2932 26.4924 70.7206 26.6365 70.2047 26.9247C69.689 27.2129 69.2794 27.6188 68.976 28.1421ZM95.0197 24.2282C95.0197 23.2118 95.251 22.3092 95.7137 21.5203C96.1763 20.7239 96.825 20.1057 97.6593 19.6657C98.5012 19.2182 99.4836 18.9868 100.606 18.9717V21.7365C100.083 21.7441 99.6352 21.854 99.2636 22.0664C98.8995 22.2712 98.6188 22.5708 98.4216 22.9653C98.2401 23.3284 98.1421 23.7494 98.1277 24.2282H100.538V26.8565H98.1258V36.7665H95.0197V26.8565H93.0172V24.2282H95.0197ZM112.837 37.0395C111.57 37.0395 110.436 36.7626 109.435 36.209C108.441 35.6476 107.66 34.874 107.091 33.8878C106.53 32.8942 106.249 31.7678 106.249 30.5086C106.249 29.242 106.53 28.1117 107.091 27.1181C107.66 26.1168 108.441 25.3393 109.435 24.7856C110.436 24.2319 111.57 23.955 112.837 23.955C114.111 23.955 115.249 24.2319 116.25 24.7856C117.259 25.3393 118.044 26.113 118.605 27.1067C119.167 28.1003 119.451 29.2343 119.459 30.5086C119.451 31.7678 119.167 32.8942 118.605 33.8878C118.052 34.874 117.27 35.6476 116.261 36.209C115.253 36.7626 114.111 37.0395 112.837 37.0395ZM112.837 34.1837C113.504 34.1837 114.096 34.032 114.612 33.7286C115.128 33.4176 115.526 32.9852 115.806 32.4315C116.087 31.8702 116.227 31.2292 116.227 30.5086C116.227 29.7805 116.087 29.1357 115.806 28.5744C115.526 28.0131 115.128 27.5808 114.612 27.2774C114.096 26.9664 113.504 26.8109 112.837 26.8109C112.177 26.8109 111.589 26.9664 111.073 27.2774C110.565 27.5808 110.171 28.0131 109.89 28.5744C109.609 29.1357 109.473 29.7805 109.48 30.5086C109.48 31.2292 109.621 31.8702 109.901 32.4315C110.19 32.9852 110.584 33.4176 111.085 33.7286C111.593 34.032 112.177 34.1837 112.837 34.1837ZM122.815 24.2282H119.356L123.1 36.7665H126.126L128.588 28.7583L131.246 36.7665H134.227L137.982 24.2282H134.853L132.723 32.0325L130.369 24.2282H127.343L125.001 32.2044L122.815 24.2282Z" fill="#B0E4EA"/>
<path d="M39.0722 16.75L27.5627 39.25H16.752L21.5687 29.925H21.3526C17.3788 35.0835 11.4498 38.4794 3.00195 39.25V30.0541C3.00195 30.0541 8.40627 29.7349 11.5833 26.3947H3.00195V16.7502H12.6465V24.6826L12.8629 24.6818L16.8041 16.7502H24.098V24.6323L24.3143 24.632L28.4033 16.75H39.0722ZM101.835 36.7665H104.941V18.9375H101.835V36.7665ZM84.7111 36.5844C85.3861 36.8651 86.0726 37.0054 86.7705 37.0054C87.9234 37.0054 88.955 36.7248 89.8653 36.1634C90.7754 35.6022 91.4809 34.8286 91.9815 33.8424C92.4821 32.8488 92.7324 31.7223 92.7324 30.4632C92.7324 29.2041 92.4745 28.0777 91.9588 27.084C91.4429 26.0904 90.7261 25.3205 89.8083 24.7744C88.8905 24.2206 87.8475 23.9476 86.6794 23.9552C85.9361 23.9552 85.2231 24.0993 84.5404 24.3875C83.8578 24.6758 83.2889 25.0854 82.8338 25.6163C82.7986 25.6567 82.7645 25.6976 82.7314 25.7388V18.9489H79.6139V36.7666H82.7086L82.7024 35.1021C82.7824 35.2002 82.868 35.2961 82.9589 35.3898C83.4519 35.8981 84.036 36.2962 84.7111 36.5844ZM87.8969 33.7059C87.3886 34.0169 86.8084 34.1724 86.156 34.1724C85.5113 34.1724 84.9196 34.0131 84.3811 33.6946C83.8425 33.3683 83.414 32.9247 83.0954 32.3633C82.7844 31.8021 82.6289 31.1648 82.6289 30.4518C82.6214 29.7388 82.773 29.1017 83.084 28.5404C83.4026 27.9715 83.8311 27.5316 84.3698 27.2206C84.9083 26.902 85.5038 26.7465 86.156 26.7541C86.8084 26.7465 87.3886 26.8982 87.8969 27.2092C88.4126 27.5126 88.807 27.9488 89.0801 28.5176C89.3608 29.0789 89.5011 29.7237 89.5011 30.4518C89.5011 31.1801 89.3608 31.8248 89.0801 32.3861C88.807 32.9474 88.4126 33.3873 87.8969 33.7059ZM43.572 20.0184H47.1219L50.2974 31.6154L53.6755 20.0184H56.6338L60.2974 31.3827L63.3466 20.0184H66.6006L61.7993 36.7665H58.7386L55.0131 25.6645L51.5934 36.7665H48.4986L43.572 20.0184ZM71.8432 37.0623C70.6067 37.0699 69.4917 36.7968 68.4981 36.2431C67.512 35.6818 66.7346 34.9043 66.1656 33.9106C65.6044 32.917 65.3237 31.783 65.3237 30.5086C65.3237 29.2723 65.612 28.1535 66.1885 27.1523C66.7649 26.151 67.5461 25.3697 68.5322 24.8084C69.5183 24.2471 70.6181 23.9665 71.8317 23.9665C73.1971 23.9665 74.3917 24.2699 75.4157 24.8767C76.4474 25.4835 77.2172 26.3444 77.7255 27.4595C78.2412 28.5669 78.4271 29.8374 78.283 31.271H68.5371C68.5644 31.8421 68.7069 32.3618 68.9646 32.8298C69.2529 33.3455 69.6549 33.7475 70.1706 34.0358C70.6865 34.324 71.2629 34.4681 71.9001 34.4681C72.3855 34.4605 72.8369 34.3771 73.254 34.2179C73.6712 34.051 74.0238 33.8273 74.3121 33.5465C74.608 33.2659 74.8166 32.9474 74.938 32.5909H78.192C77.9947 33.4631 77.6003 34.2406 77.0087 34.9233C76.417 35.5984 75.6737 36.1255 74.7786 36.5048C73.8836 36.884 72.9051 37.0699 71.8432 37.0623ZM68.976 28.1421C68.7942 28.4591 68.6682 28.8004 68.5981 29.1661H75.0585C75.0116 28.7041 74.869 28.2832 74.6307 27.9032C74.3576 27.4557 73.986 27.1105 73.5157 26.8678C73.0455 26.6175 72.5145 26.4924 71.9229 26.4924C71.2932 26.4924 70.7206 26.6365 70.2047 26.9247C69.689 27.2129 69.2794 27.6188 68.976 28.1421ZM95.0197 24.2282C95.0197 23.2118 95.251 22.3092 95.7137 21.5203C96.1763 20.7239 96.825 20.1057 97.6593 19.6657C98.5012 19.2182 99.4836 18.9868 100.606 18.9717V21.7365C100.083 21.7441 99.6352 21.854 99.2636 22.0664C98.8995 22.2712 98.6188 22.5708 98.4216 22.9653C98.2401 23.3284 98.1421 23.7494 98.1277 24.2282H100.538V26.8565H98.1258V36.7665H95.0197V26.8565H93.0172V24.2282H95.0197ZM112.837 37.0395C111.57 37.0395 110.436 36.7626 109.435 36.209C108.441 35.6476 107.66 34.874 107.091 33.8878C106.53 32.8942 106.249 31.7678 106.249 30.5086C106.249 29.242 106.53 28.1117 107.091 27.1181C107.66 26.1168 108.441 25.3393 109.435 24.7856C110.436 24.2319 111.57 23.955 112.837 23.955C114.111 23.955 115.249 24.2319 116.25 24.7856C117.259 25.3393 118.044 26.113 118.605 27.1067C119.167 28.1003 119.451 29.2343 119.459 30.5086C119.451 31.7678 119.167 32.8942 118.605 33.8878C118.052 34.874 117.27 35.6476 116.261 36.209C115.253 36.7626 114.111 37.0395 112.837 37.0395ZM112.837 34.1837C113.504 34.1837 114.096 34.032 114.612 33.7286C115.128 33.4176 115.526 32.9852 115.806 32.4315C116.087 31.8702 116.227 31.2292 116.227 30.5086C116.227 29.7805 116.087 29.1357 115.806 28.5744C115.526 28.0131 115.128 27.5808 114.612 27.2774C114.096 26.9664 113.504 26.8109 112.837 26.8109C112.177 26.8109 111.589 26.9664 111.073 27.2774C110.565 27.5808 110.171 28.0131 109.89 28.5744C109.609 29.1357 109.473 29.7805 109.48 30.5086C109.48 31.2292 109.621 31.8702 109.901 32.4315C110.19 32.9852 110.584 33.4176 111.085 33.7286C111.593 34.032 112.177 34.1837 112.837 34.1837ZM122.815 24.2282H119.356L123.1 36.7665H126.126L128.588 28.7583L131.246 36.7665H134.227L137.982 24.2282H134.853L132.723 32.0325L130.369 24.2282H127.343L125.001 32.2044L122.815 24.2282Z" fill="#B0E4EA"/>
<path fill-rule="evenodd" clip-rule="evenodd" d="M39.0722 16.75L27.5627 39.25H16.752L21.5687 29.925H21.3526C17.3788 35.0835 11.4498 38.4794 3.00195 39.25V30.0541C3.00195 30.0541 8.40627 29.7349 11.5833 26.3947H3.00195V16.7502H12.6465V24.6826L12.8629 24.6818L16.8041 16.7502H24.098V24.6323L24.3143 24.632L28.4033 16.75H39.0722ZM101.835 36.7665H104.941V18.9375H101.835V36.7665ZM84.7111 36.5844C85.3861 36.8651 86.0726 37.0054 86.7705 37.0054C87.9234 37.0054 88.955 36.7248 89.8653 36.1634C90.7754 35.6022 91.4809 34.8286 91.9815 33.8424C92.4821 32.8488 92.7324 31.7223 92.7324 30.4632C92.7324 29.2041 92.4745 28.0777 91.9588 27.084C91.4429 26.0904 90.7261 25.3205 89.8083 24.7744C88.8905 24.2206 87.8475 23.9476 86.6794 23.9552C85.9361 23.9552 85.2231 24.0993 84.5404 24.3875C83.8578 24.6758 83.2889 25.0854 82.8338 25.6163C82.7986 25.6567 82.7645 25.6976 82.7314 25.7388V18.9489H79.6139V36.7666H82.7086L82.7024 35.1021C82.7824 35.2002 82.868 35.2961 82.9589 35.3898C83.4519 35.8981 84.036 36.2962 84.7111 36.5844ZM87.8969 33.7059C87.3886 34.0169 86.8084 34.1724 86.156 34.1724C85.5113 34.1724 84.9196 34.0131 84.3811 33.6946C83.8425 33.3683 83.414 32.9247 83.0954 32.3633C82.7844 31.8021 82.6289 31.1648 82.6289 30.4518C82.6214 29.7388 82.773 29.1017 83.084 28.5404C83.4026 27.9715 83.8311 27.5316 84.3698 27.2206C84.9083 26.902 85.5038 26.7465 86.156 26.7541C86.8084 26.7465 87.3886 26.8982 87.8969 27.2092C88.4126 27.5126 88.807 27.9488 89.0801 28.5176C89.3608 29.0789 89.5011 29.7237 89.5011 30.4518C89.5011 31.1801 89.3608 31.8248 89.0801 32.3861C88.807 32.9474 88.4126 33.3873 87.8969 33.7059ZM43.572 20.0184H47.1219L50.2974 31.6154L53.6755 20.0184H56.6338L60.2974 31.3827L63.3466 20.0184H66.6006L61.7993 36.7665H58.7386L55.0131 25.6645L51.5934 36.7665H48.4986L43.572 20.0184ZM71.8432 37.0623C70.6067 37.0699 69.4917 36.7968 68.4981 36.2431C67.512 35.6818 66.7346 34.9043 66.1656 33.9106C65.6044 32.917 65.3237 31.783 65.3237 30.5086C65.3237 29.2723 65.612 28.1535 66.1885 27.1523C66.7649 26.151 67.5461 25.3697 68.5322 24.8084C69.5183 24.2471 70.6181 23.9665 71.8317 23.9665C73.1971 23.9665 74.3917 24.2699 75.4157 24.8767C76.4474 25.4835 77.2172 26.3444 77.7255 27.4595C78.2412 28.5669 78.4271 29.8374 78.283 31.271H68.5371C68.5644 31.8421 68.7069 32.3618 68.9646 32.8298C69.2529 33.3455 69.6549 33.7475 70.1706 34.0358C70.6865 34.324 71.2629 34.4681 71.9001 34.4681C72.3855 34.4605 72.8369 34.3771 73.254 34.2179C73.6712 34.051 74.0238 33.8273 74.3121 33.5465C74.608 33.2659 74.8166 32.9474 74.938 32.5909H78.192C77.9947 33.4631 77.6003 34.2406 77.0087 34.9233C76.417 35.5984 75.6737 36.1255 74.7786 36.5048C73.8836 36.884 72.9051 37.0699 71.8432 37.0623ZM68.976 28.1421C68.7942 28.4591 68.6682 28.8004 68.5981 29.1661H75.0585C75.0116 28.7041 74.869 28.2832 74.6307 27.9032C74.3576 27.4557 73.986 27.1105 73.5157 26.8678C73.0455 26.6175 72.5145 26.4924 71.9229 26.4924C71.2932 26.4924 70.7206 26.6365 70.2047 26.9247C69.689 27.2129 69.2794 27.6188 68.976 28.1421ZM95.0197 24.2282C95.0197 23.2118 95.251 22.3092 95.7137 21.5203C96.1763 20.7239 96.825 20.1057 97.6593 19.6657C98.5012 19.2182 99.4836 18.9868 100.606 18.9717V21.7365C100.083 21.7441 99.6352 21.854 99.2636 22.0664C98.8995 22.2712 98.6188 22.5708 98.4216 22.9653C98.2401 23.3284 98.1421 23.7494 98.1277 24.2282H100.538V26.8565H98.1258V36.7665H95.0197V26.8565H93.0172V24.2282H95.0197ZM112.837 37.0395C111.57 37.0395 110.436 36.7626 109.435 36.209C108.441 35.6476 107.66 34.874 107.091 33.8878C106.53 32.8942 106.249 31.7678 106.249 30.5086C106.249 29.242 106.53 28.1117 107.091 27.1181C107.66 26.1168 108.441 25.3393 109.435 24.7856C110.436 24.2319 111.57 23.955 112.837 23.955C114.111 23.955 115.249 24.2319 116.25 24.7856C117.259 25.3393 118.044 26.113 118.605 27.1067C119.167 28.1003 119.451 29.2343 119.459 30.5086C119.451 31.7678 119.167 32.8942 118.605 33.8878C118.052 34.874 117.27 35.6476 116.261 36.209C115.253 36.7626 114.111 37.0395 112.837 37.0395ZM112.837 34.1837C113.504 34.1837 114.096 34.032 114.612 33.7286C115.128 33.4176 115.526 32.9852 115.806 32.4315C116.087 31.8702 116.227 31.2292 116.227 30.5086C116.227 29.7805 116.087 29.1357 115.806 28.5744C115.526 28.0131 115.128 27.5808 114.612 27.2774C114.096 26.9664 113.504 26.8109 112.837 26.8109C112.177 26.8109 111.589 26.9664 111.073 27.2774C110.565 27.5808 110.171 28.0131 109.89 28.5744C109.609 29.1357 109.473 29.7805 109.48 30.5086C109.48 31.2292 109.621 31.8702 109.901 32.4315C110.19 32.9852 110.584 33.4176 111.085 33.7286C111.593 34.032 112.177 34.1837 112.837 34.1837ZM122.815 24.2282H119.356L123.1 36.7665H126.126L128.588 28.7583L131.246 36.7665H134.227L137.982 24.2282H134.853L132.723 32.0325L130.369 24.2282H127.343L125.001 32.2044L122.815 24.2282Z" fill="#B0E4EA"/>
<path d="M39.0722 16.75L27.5627 39.25H16.752L21.5687 29.925H21.3526C17.3788 35.0835 11.4498 38.4794 3.00195 39.25V30.0541C3.00195 30.0541 8.40627 29.7349 11.5833 26.3947H3.00195V16.7502H12.6465V24.6826L12.8629 24.6818L16.8041 16.7502H24.098V24.6323L24.3143 24.632L28.4033 16.75H39.0722ZM101.835 36.7665H104.941V18.9375H101.835V36.7665ZM84.7111 36.5844C85.3861 36.8651 86.0726 37.0054 86.7705 37.0054C87.9234 37.0054 88.955 36.7248 89.8653 36.1634C90.7754 35.6022 91.4809 34.8286 91.9815 33.8424C92.4821 32.8488 92.7324 31.7223 92.7324 30.4632C92.7324 29.2041 92.4745 28.0777 91.9588 27.084C91.4429 26.0904 90.7261 25.3205 89.8083 24.7744C88.8905 24.2206 87.8475 23.9476 86.6794 23.9552C85.9361 23.9552 85.2231 24.0993 84.5404 24.3875C83.8578 24.6758 83.2889 25.0854 82.8338 25.6163C82.7986 25.6567 82.7645 25.6976 82.7314 25.7388V18.9489H79.6139V36.7666H82.7086L82.7024 35.1021C82.7824 35.2002 82.868 35.2961 82.9589 35.3898C83.4519 35.8981 84.036 36.2962 84.7111 36.5844ZM87.8969 33.7059C87.3886 34.0169 86.8084 34.1724 86.156 34.1724C85.5113 34.1724 84.9196 34.0131 84.3811 33.6946C83.8425 33.3683 83.414 32.9247 83.0954 32.3633C82.7844 31.8021 82.6289 31.1648 82.6289 30.4518C82.6214 29.7388 82.773 29.1017 83.084 28.5404C83.4026 27.9715 83.8311 27.5316 84.3698 27.2206C84.9083 26.902 85.5038 26.7465 86.156 26.7541C86.8084 26.7465 87.3886 26.8982 87.8969 27.2092C88.4126 27.5126 88.807 27.9488 89.0801 28.5176C89.3608 29.0789 89.5011 29.7237 89.5011 30.4518C89.5011 31.1801 89.3608 31.8248 89.0801 32.3861C88.807 32.9474 88.4126 33.3873 87.8969 33.7059ZM43.572 20.0184H47.1219L50.2974 31.6154L53.6755 20.0184H56.6338L60.2974 31.3827L63.3466 20.0184H66.6006L61.7993 36.7665H58.7386L55.0131 25.6645L51.5934 36.7665H48.4986L43.572 20.0184ZM71.8432 37.0623C70.6067 37.0699 69.4917 36.7968 68.4981 36.2431C67.512 35.6818 66.7346 34.9043 66.1656 33.9106C65.6044 32.917 65.3237 31.783 65.3237 30.5086C65.3237 29.2723 65.612 28.1535 66.1885 27.1523C66.7649 26.151 67.5461 25.3697 68.5322 24.8084C69.5183 24.2471 70.6181 23.9665 71.8317 23.9665C73.1971 23.9665 74.3917 24.2699 75.4157 24.8767C76.4474 25.4835 77.2172 26.3444 77.7255 27.4595C78.2412 28.5669 78.4271 29.8374 78.283 31.271H68.5371C68.5644 31.8421 68.7069 32.3618 68.9646 32.8298C69.2529 33.3455 69.6549 33.7475 70.1706 34.0358C70.6865 34.324 71.2629 34.4681 71.9001 34.4681C72.3855 34.4605 72.8369 34.3771 73.254 34.2179C73.6712 34.051 74.0238 33.8273 74.3121 33.5465C74.608 33.2659 74.8166 32.9474 74.938 32.5909H78.192C77.9947 33.4631 77.6003 34.2406 77.0087 34.9233C76.417 35.5984 75.6737 36.1255 74.7786 36.5048C73.8836 36.884 72.9051 37.0699 71.8432 37.0623ZM68.976 28.1421C68.7942 28.4591 68.6682 28.8004 68.5981 29.1661H75.0585C75.0116 28.7041 74.869 28.2832 74.6307 27.9032C74.3576 27.4557 73.986 27.1105 73.5157 26.8678C73.0455 26.6175 72.5145 26.4924 71.9229 26.4924C71.2932 26.4924 70.7206 26.6365 70.2047 26.9247C69.689 27.2129 69.2794 27.6188 68.976 28.1421ZM95.0197 24.2282C95.0197 23.2118 95.251 22.3092 95.7137 21.5203C96.1763 20.7239 96.825 20.1057 97.6593 19.6657C98.5012 19.2182 99.4836 18.9868 100.606 18.9717V21.7365C100.083 21.7441 99.6352 21.854 99.2636 22.0664C98.8995 22.2712 98.6188 22.5708 98.4216 22.9653C98.2401 23.3284 98.1421 23.7494 98.1277 24.2282H100.538V26.8565H98.1258V36.7665H95.0197V26.8565H93.0172V24.2282H95.0197ZM112.837 37.0395C111.57 37.0395 110.436 36.7626 109.435 36.209C108.441 35.6476 107.66 34.874 107.091 33.8878C106.53 32.8942 106.249 31.7678 106.249 30.5086C106.249 29.242 106.53 28.1117 107.091 27.1181C107.66 26.1168 108.441 25.3393 109.435 24.7856C110.436 24.2319 111.57 23.955 112.837 23.955C114.111 23.955 115.249 24.2319 116.25 24.7856C117.259 25.3393 118.044 26.113 118.605 27.1067C119.167 28.1003 119.451 29.2343 119.459 30.5086C119.451 31.7678 119.167 32.8942 118.605 33.8878C118.052 34.874 117.27 35.6476 116.261 36.209C115.253 36.7626 114.111 37.0395 112.837 37.0395ZM112.837 34.1837C113.504 34.1837 114.096 34.032 114.612 33.7286C115.128 33.4176 115.526 32.9852 115.806 32.4315C116.087 31.8702 116.227 31.2292 116.227 30.5086C116.227 29.7805 116.087 29.1357 115.806 28.5744C115.526 28.0131 115.128 27.5808 114.612 27.2774C114.096 26.9664 113.504 26.8109 112.837 26.8109C112.177 26.8109 111.589 26.9664 111.073 27.2774C110.565 27.5808 110.171 28.0131 109.89 28.5744C109.609 29.1357 109.473 29.7805 109.48 30.5086C109.48 31.2292 109.621 31.8702 109.901 32.4315C110.19 32.9852 110.584 33.4176 111.085 33.7286C111.593 34.032 112.177 34.1837 112.837 34.1837ZM122.815 24.2282H119.356L123.1 36.7665H126.126L128.588 28.7583L131.246 36.7665H134.227L137.982 24.2282H134.853L132.723 32.0325L130.369 24.2282H127.343L125.001 32.2044L122.815 24.2282Z" fill="#B0E4EA"/>
</g>
</g>
</svg>
